<svg xmlns="http://www.w3.org/2000/svg" viewBox="0 0 423 163" width="846" height="326" role="img" aria-label="Crosery — activity" shape-rendering="crispEdges"><path fill="#4a3427" fill-opacity="0.16" d="M3 5h418v1h1v1h1v154h-1v1h-1v1h-418v-1h-1v-1h-1v-154h1v-1h1z"/><path fill="#fff7ef" d="M2 4h418v158h-418zM0 6h2v154h-2zM420 6h2v154h-2zM1 5h1v1h-1zM1 160h1v1h-1zM420 5h1v1h-1zM420 160h1v1h-1z"/><path fill="#4a3427" d="M2 4h418v1h-418zM2 161h418v1h-418zM0 6h1v154h-1zM421 6h1v154h-1zM1 5h1v1h-1zM1 160h1v1h-1zM420 5h1v1h-1zM420 160h1v1h-1z"/><path fill="#f7e8d8" d="M2 5h418v1h-418zM2 160h418v1h-418zM1 6h1v154h-1zM420 6h1v154h-1z"/><path fill="#4a3427" d="M11 0h55v16h-55zM10 1h1v14h-1zM66 1h1v14h-1z"/><path fill="#fff7ef" d="M16 5h1v4h-1zM15 7h1v2h-1zM15 10h1v2h-1zM17 5h1v4h-1zM15 9h3v1h-3zM14 10h1v2h-1zM18 7h1v2h-1zM18 10h1v2h-1zM22 7h2v1h-2zM22 11h2v1h-2zM21 8h1v3h-1zM24 8h1v1h-1zM24 10h1v1h-1zM28 5h1v2h-1zM28 8h1v3h-1zM27 7h4v1h-4zM29 11h2v1h-2zM34 5h1v1h-1zM34 8h1v3h-1zM33 7h2v1h-2zM33 11h3v1h-3zM38 7h1v2h-1zM42 7h1v4h-1zM39 7h1v4h-1zM41 9h1v3h-1zM40 9h1v3h-1zM46 5h1v1h-1zM46 8h1v3h-1zM45 7h2v1h-2zM45 11h3v1h-3zM51 5h1v2h-1zM51 8h1v3h-1zM50 7h4v1h-4zM52 11h2v1h-2zM56 7h1v2h-1zM60 7h1v4h-1zM57 7h1v4h-1zM59 9h1v4h-1zM58 9h1v4h-1zM56 13h2v1h-2zM16 9h3v1h-3zM19 10h1v2h-1zM23 7h2v1h-2zM23 11h2v1h-2zM22 8h1v3h-1zM25 8h1v1h-1zM25 10h1v1h-1zM29 5h1v2h-1zM29 8h1v3h-1zM28 7h4v1h-4zM30 11h2v1h-2zM35 5h1v1h-1zM35 8h1v3h-1zM34 7h2v1h-2zM34 11h3v1h-3zM43 7h1v2h-1zM47 5h1v1h-1zM47 8h1v3h-1zM46 7h2v1h-2zM46 11h3v1h-3zM52 5h1v2h-1zM52 8h1v3h-1zM51 7h4v1h-4zM53 11h2v1h-2zM61 7h1v2h-1zM57 13h2v1h-2z"/><path fill="#8a6a55" d="M230 6h2v1h-2zM231 7h1v5h-1zM231 12h2v1h-2zM235 8h2v1h-2zM237 9h1v1h-1zM237 11h1v1h-1zM235 10h3v1h-3zM235 12h3v1h-3zM234 11h1v1h-1zM240 8h3v1h-3zM239 9h1v1h-1zM240 10h2v1h-2zM242 11h1v1h-1zM242 27h1v2h-1zM239 12h3v1h-3zM245 6h1v2h-1zM245 9h1v3h-1zM244 8h4v1h-4zM246 12h2v1h-2zM256 6h1v1h-1zM256 8h1v4h-1zM255 7h2v1h-2zM255 12h3v1h-3zM260 6h2v1h-2zM259 7h1v1h-1zM259 11h1v1h-1zM262 7h1v2h-1zM261 9h1v1h-1zM260 10h1v1h-1zM260 117h1v2h-1zM260 120h1v3h-1zM259 12h4v1h-4zM269 8h2v1h-2zM269 30h2v1h-2zM272 8h1v1h-1zM269 9h1v4h-1zM269 119h1v2h-1zM271 9h1v4h-1zM271 24h1v6h-1zM273 9h1v4h-1zM273 26h1v4h-1zM276 8h2v1h-2zM276 12h2v1h-2zM275 9h1v3h-1zM278 9h1v3h-1zM278 27h1v4h-1zM280 8h3v1h-3zM280 9h1v4h-1zM283 9h1v4h-1zM283 123h1v2h-1zM286 6h1v2h-1zM286 9h1v3h-1zM285 8h4v1h-4zM287 12h2v1h-2zM290 6h1v2h-1zM290 9h1v4h-1zM290 8h3v1h-3zM293 9h1v4h-1zM296 8h3v1h-3zM295 9h1v1h-1zM295 24h1v6h-1zM295 120h1v1h-1zM296 10h2v1h-2zM298 11h1v1h-1zM295 12h3v1h-3zM309 9h2v2h-2zM322 6h1v1h-1zM322 8h1v4h-1zM322 26h1v4h-1zM322 120h1v3h-1zM322 124h1v2h-1zM321 7h2v1h-2zM321 12h3v1h-3zM326 12h1v2h-1zM325 14h1v1h-1zM325 26h1v4h-1zM325 120h1v3h-1zM330 6h2v1h-2zM329 7h1v1h-1zM329 11h1v1h-1zM329 88h1v5h-1zM332 7h1v2h-1zM332 90h1v1h-1zM332 92h1v1h-1zM332 117h1v2h-1zM332 120h1v3h-1zM331 9h1v1h-1zM330 10h1v1h-1zM330 27h1v3h-1zM330 31h1v1h-1zM330 119h1v4h-1zM329 12h4v1h-4zM336 6h2v1h-2zM335 7h1v2h-1zM335 90h1v1h-1zM335 120h1v3h-1zM337 7h1v4h-1zM337 12h1v1h-1zM337 90h1v1h-1zM334 9h1v2h-1zM334 11h4v1h-4zM341 6h2v1h-2zM341 119h2v1h-2zM340 7h1v2h-1zM340 92h1v1h-1zM342 7h1v4h-1zM342 12h1v1h-1zM342 90h1v1h-1zM342 117h1v1h-1zM342 120h1v3h-1zM339 9h1v2h-1zM339 11h4v1h-4zM350 8h2v1h-2zM350 12h2v1h-2zM349 9h1v3h-1zM352 9h1v1h-1zM352 11h1v1h-1zM355 8h2v1h-2zM355 12h2v1h-2zM355 120h2v1h-2zM354 9h1v3h-1zM357 9h1v3h-1zM357 119h1v1h-1zM359 8h3v1h-3zM359 9h1v4h-1zM359 120h1v1h-1zM359 122h1v1h-1zM362 9h1v4h-1zM362 120h1v1h-1zM365 6h1v2h-1zM365 9h1v3h-1zM364 8h4v1h-4zM366 12h2v1h-2zM369 8h1v1h-1zM369 10h1v3h-1zM369 120h1v3h-1zM371 8h1v1h-1zM369 9h2v1h-2zM374 6h1v1h-1zM374 9h1v3h-1zM374 120h1v1h-1zM373 8h2v1h-2zM373 12h3v1h-3zM377 6h1v2h-1zM377 9h1v3h-1zM377 122h1v1h-1zM377 8h3v1h-3zM377 12h3v1h-3zM380 9h1v3h-1zM380 117h1v1h-1zM380 120h1v3h-1zM382 8h1v4h-1zM385 8h1v4h-1zM383 12h3v1h-3zM388 6h1v2h-1zM388 9h1v3h-1zM388 120h1v3h-1zM387 8h4v1h-4zM389 12h2v1h-2zM389 119h2v1h-2zM389 123h2v1h-2zM393 6h1v1h-1zM393 9h1v3h-1zM393 90h1v4h-1zM393 119h1v1h-1zM393 121h1v3h-1zM392 8h2v1h-2zM392 12h3v1h-3zM397 8h2v1h-2zM397 12h2v1h-2zM397 119h2v1h-2zM396 9h1v3h-1zM399 9h1v3h-1zM401 8h3v1h-3zM401 9h1v4h-1zM401 120h1v1h-1zM401 122h1v1h-1zM404 9h1v4h-1zM404 89h1v1h-1zM404 120h1v1h-1zM407 8h3v1h-3zM407 119h3v1h-3zM406 9h1v1h-1zM406 90h1v1h-1zM406 92h1v1h-1zM406 120h1v1h-1zM407 10h2v1h-2zM407 89h2v1h-2zM407 93h2v1h-2zM407 121h2v1h-2zM409 11h1v1h-1zM409 90h1v1h-1zM409 122h1v1h-1zM406 12h3v1h-3zM406 123h3v1h-3zM35 24h3v1h-3zM35 27h3v1h-3zM35 30h3v1h-3zM34 25h1v2h-1zM34 29h1v1h-1zM38 25h1v1h-1zM38 28h1v2h-1zM41 26h2v1h-2zM41 30h2v1h-2zM40 27h1v1h-1zM40 29h1v1h-1zM43 27h1v1h-1zM40 28h4v1h-4zM45 26h3v1h-3zM45 30h3v1h-3zM45 27h1v3h-1zM45 31h1v2h-1zM48 27h1v3h-1zM59 24h3v1h-3zM59 30h3v1h-3zM58 25h1v5h-1zM62 25h1v5h-1zM65 26h2v1h-2zM65 30h2v1h-2zM64 27h1v3h-1zM67 27h1v1h-1zM67 29h1v1h-1zM70 24h1v2h-1zM70 27h1v3h-1zM69 26h4v1h-4zM71 30h2v1h-2zM82 24h1v1h-1zM82 27h1v4h-1zM86 24h1v4h-1zM86 30h1v1h-1zM82 25h2v2h-2zM84 27h1v1h-1zM85 28h2v2h-2zM89 26h2v1h-2zM89 30h2v1h-2zM88 27h1v3h-1zM91 27h1v3h-1zM93 26h1v2h-1zM97 26h1v2h-1zM94 28h1v2h-1zM96 28h1v2h-1zM95 30h1v1h-1zM112 24h4v1h-4zM112 30h4v1h-4zM112 25h1v5h-1zM116 25h1v5h-1zM119 26h2v1h-2zM119 30h2v1h-2zM118 27h1v1h-1zM118 29h1v1h-1zM121 27h1v1h-1zM118 28h4v1h-4zM124 26h2v1h-2zM124 30h2v1h-2zM123 27h1v3h-1zM126 27h1v1h-1zM126 29h1v1h-1zM139 24h1v6h-1zM136 28h1v2h-1zM137 30h2v1h-2zM142 26h2v1h-2zM144 27h1v1h-1zM144 29h1v1h-1zM142 28h3v1h-3zM142 30h3v1h-3zM141 29h1v1h-1zM146 26h3v1h-3zM146 27h1v4h-1zM149 27h1v4h-1zM160 24h5v1h-5zM160 25h1v2h-1zM160 28h1v3h-1zM160 27h4v1h-4zM167 26h2v1h-2zM167 30h2v1h-2zM166 27h1v1h-1zM166 29h1v1h-1zM169 27h1v1h-1zM166 28h4v1h-4zM171 24h1v2h-1zM171 27h1v3h-1zM171 26h3v1h-3zM171 30h3v1h-3zM174 27h1v3h-1zM184 24h1v1h-1zM184 27h1v4h-1zM190 24h1v1h-1zM190 27h1v4h-1zM184 25h2v2h-2zM189 25h2v2h-2zM186 27h1v2h-1zM188 27h1v2h-1zM187 29h1v2h-1zM193 26h2v1h-2zM195 27h1v1h-1zM195 29h1v1h-1zM193 28h3v1h-3zM193 30h3v1h-3zM192 29h1v1h-1zM197 26h1v1h-1zM197 28h1v3h-1zM199 26h1v1h-1zM197 27h2v1h-2zM190 52h5v5h-5zM196 40h5v5h-5zM196 64h5v5h-5zM202 46h5v5h-5zM208 34h5v5h-5zM214 34h5v5h-5zM216 24h1v2h-1zM215 26h1v2h-1zM217 26h1v2h-1zM215 28h3v1h-3zM214 29h1v2h-1zM218 29h1v2h-1zM220 26h3v1h-3zM220 30h3v1h-3zM220 27h1v3h-1zM220 31h1v2h-1zM223 27h1v3h-1zM225 26h1v1h-1zM225 28h1v3h-1zM227 26h1v1h-1zM225 27h2v1h-2zM226 52h5v5h-5zM232 40h5v5h-5zM232 46h5v5h-5zM232 52h5v5h-5zM238 40h5v5h-5zM238 46h5v5h-5zM238 52h5v5h-5zM238 24h1v1h-1zM238 27h1v4h-1zM244 24h1v1h-1zM244 27h1v4h-1zM238 25h2v2h-2zM243 25h2v2h-2zM240 27h1v2h-1zM241 29h1v2h-1zM247 26h2v1h-2zM249 27h1v1h-1zM249 29h1v1h-1zM247 28h3v1h-3zM247 30h3v1h-3zM246 29h1v1h-1zM251 26h1v2h-1zM255 26h1v2h-1zM252 28h1v2h-1zM254 28h1v2h-1zM253 30h1v2h-1zM251 32h2v1h-2zM268 64h5v5h-5zM268 28h1v2h-1zM268 121h1v2h-1zM276 26h1v4h-1zM276 117h1v2h-1zM276 120h1v3h-1zM274 30h3v1h-3zM278 26h3v1h-3zM281 27h1v4h-1zM281 119h1v2h-1zM274 40h5v5h-5zM286 64h5v5h-5zM292 58h5v5h-5zM292 28h1v2h-1zM292 120h1v1h-1zM292 122h1v1h-1zM293 30h2v1h-2zM293 119h2v1h-2zM293 123h2v1h-2zM297 26h1v4h-1zM297 120h1v1h-1zM300 26h1v4h-1zM300 122h1v1h-1zM298 30h3v1h-3zM298 119h3v1h-3zM302 24h2v1h-2zM303 25h1v5h-1zM303 30h2v1h-2zM304 34h5v5h-5zM304 64h5v5h-5zM318 24h1v2h-1zM317 26h1v2h-1zM319 26h1v2h-1zM317 28h3v1h-3zM316 29h1v2h-1zM320 29h1v2h-1zM323 30h3v1h-3zM328 26h3v1h-3zM328 30h3v1h-3zM328 123h3v1h-3zM327 27h1v3h-1zM327 119h1v4h-1zM328 32h2v1h-2zM328 87h2v1h-2zM346 64h5v5h-5zM11 34h1v1h-1zM11 37h1v4h-1zM17 34h1v1h-1zM17 37h1v4h-1zM17 71h1v1h-1zM17 74h1v2h-1zM11 35h2v2h-2zM16 35h2v2h-2zM13 37h1v2h-1zM13 71h1v2h-1zM13 75h1v1h-1zM15 37h1v2h-1zM15 53h1v6h-1zM14 39h1v2h-1zM20 36h2v1h-2zM20 40h2v1h-2zM19 37h1v3h-1zM19 52h1v2h-1zM19 55h1v4h-1zM19 72h1v4h-1zM22 37h1v3h-1zM22 55h1v4h-1zM22 72h1v4h-1zM24 36h3v1h-3zM24 72h3v1h-3zM24 37h1v4h-1zM24 54h1v4h-1zM24 73h1v4h-1zM27 37h1v4h-1zM27 54h1v4h-1zM27 73h1v4h-1zM13 52h5v1h-5zM19 54h3v1h-3zM25 58h3v1h-3zM14 70h3v1h-3zM14 73h3v1h-3zM14 76h3v1h-3zM20 76h3v1h-3zM391 89h2v1h-2zM394 89h1v1h-1zM391 90h1v4h-1zM391 120h1v3h-1zM395 90h1v4h-1zM395 119h1v1h-1zM398 89h2v1h-2zM398 93h2v1h-2zM397 90h1v3h-1zM400 90h1v3h-1zM402 89h1v1h-1zM402 91h1v3h-1zM402 90h2v1h-2zM402 119h2v1h-2zM402 123h2v1h-2zM406 91h4v1h-4zM375 87h5v5h-5zM329 93h2v1h-2zM333 89h2v1h-2zM333 93h2v1h-2zM332 91h4v1h-4zM338 89h3v1h-3zM338 91h2v1h-2zM338 123h2v1h-2zM337 93h3v1h-3zM343 89h3v1h-3zM343 91h2v1h-2zM345 92h1v1h-1zM345 120h1v3h-1zM342 93h3v1h-3zM260 119h3v1h-3zM260 123h3v1h-3zM263 120h1v3h-1zM265 119h1v2h-1zM266 121h1v2h-1zM267 123h1v2h-1zM265 125h2v1h-2zM276 119h3v1h-3zM276 123h3v1h-3zM279 120h1v3h-1zM285 119h1v2h-1zM282 121h1v2h-1zM284 121h1v2h-1zM281 125h2v1h-2zM288 117h1v2h-1zM288 120h1v3h-1zM287 119h4v1h-4zM289 123h2v1h-2zM292 121h4v1h-4zM298 121h2v1h-2zM297 123h3v1h-3zM311 120h2v2h-2zM322 119h3v1h-3zM322 123h3v1h-3zM332 119h3v1h-3zM332 123h3v1h-3zM337 117h2v1h-2zM338 118h1v5h-1zM341 123h3v1h-3zM346 119h2v1h-2zM346 123h2v1h-2zM348 120h1v1h-1zM348 122h1v1h-1zM355 119h1v1h-1zM355 121h1v3h-1zM360 119h2v1h-2zM360 123h2v1h-2zM359 121h4v1h-4zM364 119h3v1h-3zM364 123h3v1h-3zM364 120h1v3h-1zM364 124h1v2h-1zM367 120h1v3h-1zM370 119h2v1h-2zM370 123h2v1h-2zM372 120h1v3h-1zM375 119h3v1h-3zM375 121h2v1h-2zM374 123h3v1h-3zM379 119h2v1h-2zM379 123h3v1h-3zM384 117h1v2h-1zM384 120h1v3h-1zM383 119h4v1h-4zM385 123h2v1h-2zM393 120h2v1h-2zM398 117h1v1h-1zM398 120h1v3h-1zM397 123h3v1h-3zM401 121h4v1h-4z"/><path fill="#f1e4d8" d="M34 34h5v5h-5zM34 40h5v5h-5zM34 46h5v5h-5zM34 52h5v5h-5zM34 58h5v5h-5zM34 64h5v5h-5zM34 70h5v5h-5zM40 34h5v5h-5zM40 46h5v5h-5zM40 52h5v5h-5zM40 58h5v5h-5zM40 64h5v5h-5zM40 70h5v5h-5zM46 34h5v5h-5zM46 40h5v5h-5zM46 46h5v5h-5zM46 52h5v5h-5zM46 58h5v5h-5zM46 64h5v5h-5zM46 70h5v5h-5zM52 34h5v5h-5zM52 40h5v5h-5zM52 46h5v5h-5zM52 52h5v5h-5zM52 58h5v5h-5zM52 64h5v5h-5zM52 70h5v5h-5zM58 34h5v5h-5zM58 40h5v5h-5zM58 46h5v5h-5zM58 52h5v5h-5zM58 58h5v5h-5zM58 64h5v5h-5zM58 70h5v5h-5zM64 34h5v5h-5zM64 40h5v5h-5zM64 46h5v5h-5zM64 52h5v5h-5zM64 64h5v5h-5zM64 70h5v5h-5zM70 34h5v5h-5zM70 40h5v5h-5zM70 46h5v5h-5zM70 52h5v5h-5zM70 58h5v5h-5zM70 64h5v5h-5zM76 34h5v5h-5zM76 40h5v5h-5zM76 46h5v5h-5zM76 52h5v5h-5zM76 58h5v5h-5zM76 70h5v5h-5zM82 34h5v5h-5zM82 40h5v5h-5zM82 46h5v5h-5zM82 52h5v5h-5zM82 58h5v5h-5zM82 64h5v5h-5zM82 70h5v5h-5zM88 34h5v5h-5zM88 40h5v5h-5zM88 46h5v5h-5zM88 52h5v5h-5zM88 58h5v5h-5zM88 64h5v5h-5zM88 70h5v5h-5zM94 34h5v5h-5zM94 40h5v5h-5zM94 46h5v5h-5zM94 52h5v5h-5zM94 58h5v5h-5zM94 64h5v5h-5zM94 70h5v5h-5zM100 34h5v5h-5zM100 40h5v5h-5zM100 46h5v5h-5zM100 52h5v5h-5zM100 58h5v5h-5zM100 64h5v5h-5zM100 70h5v5h-5zM106 40h5v5h-5zM106 46h5v5h-5zM106 52h5v5h-5zM106 58h5v5h-5zM106 64h5v5h-5zM106 70h5v5h-5zM112 34h5v5h-5zM112 40h5v5h-5zM112 46h5v5h-5zM112 52h5v5h-5zM112 58h5v5h-5zM112 64h5v5h-5zM112 70h5v5h-5zM118 34h5v5h-5zM118 40h5v5h-5zM118 46h5v5h-5zM118 52h5v5h-5zM118 58h5v5h-5zM118 64h5v5h-5zM124 34h5v5h-5zM124 40h5v5h-5zM124 46h5v5h-5zM124 52h5v5h-5zM124 58h5v5h-5zM124 64h5v5h-5zM124 70h5v5h-5zM130 34h5v5h-5zM130 40h5v5h-5zM130 46h5v5h-5zM130 52h5v5h-5zM130 58h5v5h-5zM130 64h5v5h-5zM130 70h5v5h-5zM136 34h5v5h-5zM136 40h5v5h-5zM136 46h5v5h-5zM136 58h5v5h-5zM136 70h5v5h-5zM142 46h5v5h-5zM142 58h5v5h-5zM142 64h5v5h-5zM148 34h5v5h-5zM148 40h5v5h-5zM148 46h5v5h-5zM148 52h5v5h-5zM148 58h5v5h-5zM148 70h5v5h-5zM154 34h5v5h-5zM154 40h5v5h-5zM154 46h5v5h-5zM154 52h5v5h-5zM154 58h5v5h-5zM154 64h5v5h-5zM154 70h5v5h-5zM160 34h5v5h-5zM160 40h5v5h-5zM160 46h5v5h-5zM160 52h5v5h-5zM160 58h5v5h-5zM160 64h5v5h-5zM160 70h5v5h-5zM166 34h5v5h-5zM166 40h5v5h-5zM166 46h5v5h-5zM166 52h5v5h-5zM166 58h5v5h-5zM166 64h5v5h-5zM166 70h5v5h-5zM172 40h5v5h-5zM172 46h5v5h-5zM172 52h5v5h-5zM172 58h5v5h-5zM172 64h5v5h-5zM172 70h5v5h-5zM178 34h5v5h-5zM178 46h5v5h-5zM178 52h5v5h-5zM178 58h5v5h-5zM178 64h5v5h-5zM178 70h5v5h-5zM184 34h5v5h-5zM184 40h5v5h-5zM184 46h5v5h-5zM184 52h5v5h-5zM184 58h5v5h-5zM184 64h5v5h-5zM184 70h5v5h-5zM190 34h5v5h-5zM190 40h5v5h-5zM190 46h5v5h-5zM190 64h5v5h-5zM190 70h5v5h-5zM196 52h5v5h-5zM202 58h5v5h-5zM208 40h5v5h-5zM214 40h5v5h-5zM214 58h5v5h-5zM220 46h5v5h-5zM226 46h5v5h-5zM226 58h5v5h-5zM238 34h5v5h-5zM238 70h5v5h-5zM244 34h5v5h-5zM244 46h5v5h-5zM250 58h5v5h-5zM250 64h5v5h-5zM250 70h5v5h-5zM256 40h5v5h-5zM256 46h5v5h-5zM256 58h5v5h-5zM256 70h5v5h-5zM262 40h5v5h-5zM262 46h5v5h-5zM274 64h5v5h-5zM274 70h5v5h-5zM280 40h5v5h-5zM280 46h5v5h-5zM280 64h5v5h-5zM280 70h5v5h-5zM286 34h5v5h-5zM286 40h5v5h-5zM286 52h5v5h-5zM286 70h5v5h-5zM298 34h5v5h-5zM298 46h5v5h-5zM298 58h5v5h-5zM298 64h5v5h-5zM298 70h5v5h-5zM310 40h5v5h-5zM310 52h5v5h-5zM310 58h5v5h-5zM310 64h5v5h-5zM310 70h5v5h-5zM316 34h5v5h-5zM316 40h5v5h-5zM316 46h5v5h-5zM316 52h5v5h-5zM316 58h5v5h-5zM316 64h5v5h-5zM316 70h5v5h-5zM322 34h5v5h-5zM322 40h5v5h-5zM322 46h5v5h-5zM322 52h5v5h-5zM322 58h5v5h-5zM322 70h5v5h-5zM328 34h5v5h-5zM328 40h5v5h-5zM328 46h5v5h-5zM328 52h5v5h-5zM328 64h5v5h-5zM328 70h5v5h-5zM334 34h5v5h-5zM334 40h5v5h-5zM334 46h5v5h-5zM334 52h5v5h-5zM334 58h5v5h-5zM334 64h5v5h-5zM340 34h5v5h-5zM340 52h5v5h-5zM340 58h5v5h-5zM340 64h5v5h-5zM346 34h5v5h-5zM346 40h5v5h-5zM346 46h5v5h-5zM346 52h5v5h-5zM351 87h5v5h-5z"/><path fill="#f0cf8f" d="M40 40h5v5h-5zM70 70h5v5h-5zM76 64h5v5h-5zM118 70h5v5h-5zM136 52h5v5h-5zM142 40h5v5h-5zM142 52h5v5h-5zM142 70h5v5h-5zM148 64h5v5h-5zM172 34h5v5h-5zM178 40h5v5h-5zM190 58h5v5h-5zM196 58h5v5h-5zM208 64h5v5h-5zM214 64h5v5h-5zM214 70h5v5h-5zM220 34h5v5h-5zM220 58h5v5h-5zM238 58h5v5h-5zM238 64h5v5h-5zM244 40h5v5h-5zM244 52h5v5h-5zM244 58h5v5h-5zM244 64h5v5h-5zM256 52h5v5h-5zM262 34h5v5h-5zM262 58h5v5h-5zM262 70h5v5h-5zM268 46h5v5h-5zM274 58h5v5h-5zM280 34h5v5h-5zM280 52h5v5h-5zM280 58h5v5h-5zM286 46h5v5h-5zM292 40h5v5h-5zM292 64h5v5h-5zM292 70h5v5h-5zM298 52h5v5h-5zM357 87h5v5h-5z"/><path fill="#dba85f" d="M64 58h5v5h-5zM136 64h5v5h-5zM196 46h5v5h-5zM196 70h5v5h-5zM208 52h5v5h-5zM214 52h5v5h-5zM220 52h5v5h-5zM226 40h5v5h-5zM226 64h5v5h-5zM226 70h5v5h-5zM232 58h5v5h-5zM232 64h5v5h-5zM250 52h5v5h-5zM256 64h5v5h-5zM268 40h5v5h-5zM268 52h5v5h-5zM268 58h5v5h-5zM274 46h5v5h-5zM292 34h5v5h-5zM298 40h5v5h-5zM304 46h5v5h-5zM310 46h5v5h-5zM322 64h5v5h-5zM334 70h5v5h-5zM340 46h5v5h-5zM346 58h5v5h-5zM363 87h5v5h-5z"/><path fill="#c4864a" d="M106 34h5v5h-5zM196 34h5v5h-5zM202 70h5v5h-5zM208 46h5v5h-5zM208 58h5v5h-5zM208 70h5v5h-5zM232 70h5v5h-5zM250 46h5v5h-5zM256 34h5v5h-5zM292 46h5v5h-5zM304 40h5v5h-5zM304 52h5v5h-5zM304 58h5v5h-5zM328 58h5v5h-5zM340 70h5v5h-5zM369 87h5v5h-5z"/><path fill="#4a3427" d="M142 34h5v5h-5zM202 34h5v5h-5zM202 40h5v5h-5zM202 52h5v5h-5zM202 64h5v5h-5zM214 46h5v5h-5zM220 40h5v5h-5zM220 64h5v5h-5zM220 70h5v5h-5zM226 34h5v5h-5zM232 34h5v5h-5zM244 70h5v5h-5zM250 34h5v5h-5zM250 40h5v5h-5zM262 52h5v5h-5zM262 64h5v5h-5zM268 34h5v5h-5zM268 70h5v5h-5zM274 34h5v5h-5zM274 52h5v5h-5zM286 58h5v5h-5zM292 52h5v5h-5zM304 70h5v5h-5zM310 34h5v5h-5zM340 40h5v5h-5zM346 70h5v5h-5zM35 87h2v1h-2zM35 93h2v1h-2zM34 88h1v1h-1zM34 92h1v1h-1zM34 119h1v1h-1zM34 121h1v1h-1zM37 88h1v2h-1zM37 91h1v2h-1zM37 116h1v4h-1zM37 121h1v2h-1zM36 90h1v1h-1zM39 91h5v1h-5zM48 87h1v2h-1zM48 90h1v3h-1zM46 89h3v1h-3zM46 93h3v1h-3zM45 90h1v3h-1zM51 89h2v1h-2zM53 90h1v1h-1zM53 92h1v1h-1zM51 91h3v1h-3zM51 93h3v1h-3zM50 92h1v1h-1zM55 89h1v2h-1zM59 89h1v2h-1zM56 91h1v2h-1zM58 91h1v2h-1zM57 93h1v2h-1zM55 95h2v1h-2zM67 89h3v1h-3zM66 90h1v1h-1zM67 91h2v1h-2zM69 92h1v1h-1zM66 93h3v1h-3zM72 87h1v2h-1zM72 90h1v3h-1zM71 89h4v1h-4zM73 93h2v1h-2zM76 89h1v1h-1zM76 91h1v3h-1zM78 89h1v1h-1zM76 90h2v1h-2zM81 89h2v1h-2zM81 93h2v1h-2zM80 90h1v1h-1zM80 92h1v1h-1zM83 90h1v1h-1zM80 91h4v1h-4zM86 89h2v1h-2zM88 90h1v1h-1zM88 92h1v1h-1zM86 91h3v1h-3zM86 93h3v1h-3zM85 92h1v1h-1zM90 87h1v4h-1zM90 92h1v2h-1zM93 89h1v1h-1zM93 93h1v1h-1zM92 90h1v1h-1zM92 92h1v1h-1zM90 91h2v1h-2zM104 90h2v2h-2zM115 87h2v1h-2zM116 88h1v5h-1zM116 93h2v1h-2zM120 89h2v1h-2zM120 93h2v1h-2zM119 90h1v3h-1zM122 90h1v3h-1zM124 89h3v1h-3zM124 90h1v4h-1zM127 90h1v4h-1zM130 89h3v1h-3zM130 93h3v1h-3zM129 90h1v3h-1zM132 90h1v3h-1zM132 94h1v1h-1zM130 95h2v1h-2zM135 89h2v1h-2zM135 93h2v1h-2zM134 90h1v1h-1zM134 92h1v1h-1zM137 90h1v1h-1zM134 91h4v1h-4zM140 89h3v1h-3zM139 90h1v1h-1zM140 91h2v1h-2zM142 92h1v1h-1zM139 93h3v1h-3zM145 87h1v2h-1zM145 90h1v3h-1zM144 89h4v1h-4zM146 93h2v1h-2zM156 87h1v1h-1zM156 89h1v4h-1zM155 88h2v1h-2zM155 93h3v1h-3zM160 87h2v1h-2zM160 93h2v1h-2zM159 88h1v2h-1zM159 91h1v2h-1zM162 88h1v1h-1zM162 91h1v2h-1zM159 90h3v1h-3zM173 90h2v2h-2zM185 89h2v1h-2zM187 90h1v1h-1zM187 92h1v1h-1zM185 91h3v1h-3zM185 93h3v1h-3zM184 92h1v1h-1zM190 89h2v1h-2zM190 93h2v1h-2zM189 90h1v3h-1zM192 90h1v1h-1zM192 92h1v1h-1zM195 87h1v2h-1zM195 90h1v3h-1zM194 89h4v1h-4zM196 93h2v1h-2zM200 87h1v1h-1zM200 90h1v3h-1zM199 89h2v1h-2zM199 93h3v1h-3zM203 89h1v2h-1zM207 89h1v2h-1zM204 91h1v2h-1zM206 91h1v2h-1zM205 93h1v1h-1zM210 89h2v1h-2zM210 93h2v1h-2zM209 90h1v1h-1zM209 92h1v1h-1zM212 90h1v1h-1zM209 91h4v1h-4zM221 87h1v1h-1zM221 89h1v4h-1zM220 88h2v1h-2zM220 93h3v1h-3zM225 87h2v1h-2zM224 88h1v1h-1zM224 92h1v1h-1zM227 88h1v2h-1zM226 90h1v1h-1zM225 91h1v1h-1zM224 93h4v1h-4zM229 87h4v1h-4zM229 88h1v2h-1zM229 90h3v1h-3zM229 93h3v1h-3zM232 91h1v2h-1zM237 86h1v2h-1zM236 88h1v2h-1zM235 90h1v3h-1zM234 93h1v2h-1zM240 87h2v1h-2zM240 93h2v1h-2zM239 88h1v1h-1zM239 92h1v1h-1zM242 88h1v2h-1zM242 91h1v2h-1zM241 90h1v1h-1zM244 87h4v1h-4zM247 88h1v2h-1zM246 90h1v2h-1zM245 92h1v2h-1zM251 87h1v1h-1zM251 89h1v4h-1zM250 88h2v1h-2zM250 93h3v1h-3zM262 87h1v2h-1zM262 90h1v3h-1zM260 89h3v1h-3zM260 93h3v1h-3zM259 90h1v3h-1zM265 89h2v1h-2zM267 90h1v1h-1zM267 92h1v1h-1zM265 91h3v1h-3zM265 93h3v1h-3zM264 92h1v1h-1zM269 89h1v2h-1zM273 89h1v2h-1zM270 91h1v2h-1zM272 91h1v2h-1zM271 93h1v2h-1zM269 95h2v1h-2zM276 89h3v1h-3zM275 90h1v1h-1zM276 91h2v1h-2zM278 92h1v1h-1zM275 93h3v1h-3zM381 87h5v5h-5zM13 116h3v1h-3zM13 119h3v1h-3zM13 122h3v1h-3zM12 117h1v2h-1zM12 121h1v1h-1zM16 117h1v1h-1zM16 120h1v2h-1zM20 116h1v2h-1zM20 119h1v3h-1zM19 118h4v1h-4zM21 122h2v1h-2zM26 118h2v1h-2zM28 119h1v1h-1zM28 121h1v1h-1zM26 120h3v1h-3zM26 122h3v1h-3zM25 121h1v1h-1zM32 118h2v1h-2zM32 122h2v1h-2zM31 119h1v3h-1zM40 118h1v2h-1zM40 121h1v2h-1zM39 119h1v1h-1zM39 121h1v1h-1zM37 120h2v1h-2zM14 116h3v1h-3zM14 119h3v1h-3zM14 122h3v1h-3zM13 117h1v2h-1zM13 121h1v1h-1zM17 117h1v1h-1zM17 120h1v2h-1zM21 116h1v2h-1zM21 119h1v3h-1zM20 118h4v1h-4zM22 122h2v1h-2zM27 118h2v1h-2zM29 119h1v1h-1zM29 121h1v1h-1zM27 120h3v1h-3zM27 122h3v1h-3zM26 121h1v1h-1zM33 118h2v1h-2zM33 122h2v1h-2zM32 119h1v3h-1zM35 119h1v1h-1zM35 121h1v1h-1zM38 116h1v4h-1zM38 121h1v2h-1zM41 118h1v1h-1zM41 122h1v1h-1zM38 120h2v1h-2z"/><path fill="#d9c2ad" d="M12 101h1v1h-1zM12 128h1v5h-1zM15 101h1v1h-1zM18 101h1v1h-1zM21 101h1v1h-1zM24 101h1v1h-1zM27 101h1v1h-1zM30 101h1v1h-1zM33 101h1v1h-1zM36 101h1v1h-1zM39 101h1v1h-1zM42 101h1v1h-1zM45 101h1v1h-1zM48 101h1v1h-1zM51 101h1v1h-1zM54 101h1v1h-1zM57 101h1v1h-1zM60 101h1v1h-1zM63 101h1v1h-1zM66 101h1v1h-1zM69 101h1v1h-1zM72 101h1v1h-1zM75 101h1v1h-1zM78 101h1v1h-1zM81 101h1v1h-1zM84 101h1v1h-1zM87 101h1v1h-1zM90 101h1v1h-1zM93 101h1v1h-1zM96 101h1v1h-1zM99 101h1v1h-1zM102 101h1v1h-1zM105 101h1v1h-1zM108 101h1v1h-1zM111 101h1v1h-1zM114 101h1v1h-1zM117 101h1v1h-1zM120 101h1v1h-1zM123 101h1v1h-1zM126 101h1v1h-1zM129 101h1v1h-1zM132 101h1v1h-1zM135 101h1v1h-1zM138 101h1v1h-1zM141 101h1v1h-1zM144 101h1v1h-1zM147 101h1v1h-1zM150 101h1v1h-1zM153 101h1v1h-1zM156 101h1v1h-1zM159 101h1v1h-1zM162 101h1v1h-1zM165 101h1v1h-1zM168 101h1v1h-1zM171 101h1v1h-1zM174 101h1v1h-1zM177 101h1v1h-1zM180 101h1v1h-1zM183 101h1v1h-1zM186 101h1v1h-1zM189 101h1v1h-1zM192 101h1v1h-1zM195 101h1v1h-1zM198 101h1v1h-1zM201 101h1v1h-1zM204 101h1v1h-1zM207 101h1v1h-1zM210 101h1v1h-1zM213 101h1v1h-1zM216 101h1v1h-1zM219 101h1v1h-1zM222 101h1v1h-1zM225 101h1v1h-1zM228 101h1v1h-1zM231 101h1v1h-1zM234 101h1v1h-1zM237 101h1v1h-1zM240 101h1v1h-1zM243 101h1v1h-1zM246 101h1v1h-1zM249 101h1v1h-1zM252 101h1v1h-1zM255 101h1v1h-1zM258 101h1v1h-1zM261 101h1v1h-1zM264 101h1v1h-1zM267 101h1v1h-1zM270 101h1v1h-1zM273 101h1v1h-1zM276 101h1v1h-1zM279 101h1v1h-1zM282 101h1v1h-1zM285 101h1v1h-1zM288 101h1v1h-1zM291 101h1v1h-1zM294 101h1v1h-1zM297 101h1v1h-1zM300 101h1v1h-1zM303 101h1v1h-1zM306 101h1v1h-1zM309 101h1v1h-1zM312 101h1v1h-1zM315 101h1v1h-1zM318 101h1v1h-1zM321 101h1v1h-1zM324 101h1v1h-1zM327 101h1v1h-1zM330 101h1v1h-1zM333 101h1v1h-1zM336 101h1v1h-1zM339 101h1v1h-1zM342 101h1v1h-1zM345 101h1v1h-1zM348 101h1v1h-1zM351 101h1v1h-1zM354 101h1v1h-1zM357 101h1v1h-1zM360 101h1v1h-1zM363 101h1v1h-1zM366 101h1v1h-1zM369 101h1v1h-1zM372 101h1v1h-1zM375 101h1v1h-1zM378 101h1v1h-1zM381 101h1v1h-1zM384 101h1v1h-1zM387 101h1v1h-1zM390 101h1v1h-1zM393 101h1v1h-1zM396 101h1v1h-1zM399 101h1v1h-1zM402 101h1v1h-1zM405 101h1v1h-1zM408 101h1v1h-1zM13 127h397v7h-397zM410 128h1v5h-1z"/><path fill="#ee8d72" d="M13 128h87v5h-87z"/><path fill="#969390" d="M100 128h76v5h-76z"/><path fill="#7fa8d6" d="M176 128h72v5h-72z"/><path fill="#ebc4ad" d="M248 128h39v5h-39z"/><path fill="#f6e993" d="M287 128h30v5h-30z"/><path fill="#82a5c1" d="M317 128h23v5h-23z"/><path fill="#8a6a55" d="M13 127h397v1h-397zM13 133h397v1h-397zM12 128h1v5h-1zM410 128h1v5h-1z"/><path fill="#ee8d72" d="M12 143h4v4h-4z"/><path fill="#8a6a55" d="M19 143h1v3h-1zM19 147h1v3h-1zM23 143h1v3h-1zM23 147h1v3h-1zM19 146h5v1h-5zM25 143h5v1h-5zM27 144h1v6h-1zM31 143h1v1h-1zM31 146h1v4h-1zM37 143h1v1h-1zM37 146h1v4h-1zM31 144h2v2h-2zM36 144h2v2h-2zM33 146h1v2h-1zM35 146h1v2h-1zM34 148h1v2h-1zM39 143h1v6h-1zM39 149h4v1h-4zM50 143h2v1h-2zM49 144h1v1h-1zM49 148h1v1h-1zM52 144h1v2h-1zM51 146h1v1h-1zM50 147h1v1h-1zM49 149h4v1h-4zM55 143h2v1h-2zM54 144h1v1h-1zM54 148h1v1h-1zM57 144h1v2h-1zM56 146h1v1h-1zM55 147h1v1h-1zM54 149h4v1h-4zM60 143h1v1h-1zM60 145h1v1h-1zM60 149h1v1h-1zM64 143h1v1h-1zM64 147h1v1h-1zM64 149h1v1h-1zM59 144h1v1h-1zM61 144h1v1h-1zM61 147h1v2h-1zM63 144h1v2h-1zM63 148h1v1h-1zM62 146h1v1h-1zM65 148h1v1h-1zM85 143h3v1h-3zM85 149h3v1h-3zM84 144h1v5h-1zM88 144h1v1h-1zM88 148h1v1h-1zM97 143h1v1h-1zM97 145h1v4h-1zM96 144h2v1h-2zM96 149h3v1h-3zM101 143h2v1h-2zM101 149h2v1h-2zM100 144h1v2h-1zM100 148h1v1h-1zM103 144h1v2h-1zM103 147h1v2h-1zM101 146h3v1h-3zM106 143h1v1h-1zM106 145h1v1h-1zM106 149h1v1h-1zM110 143h1v1h-1zM110 147h1v1h-1zM110 149h1v1h-1zM105 144h1v1h-1zM107 144h1v1h-1zM107 147h1v2h-1zM109 144h1v2h-1zM109 148h1v1h-1zM108 146h1v1h-1zM111 148h1v1h-1zM130 143h5v1h-5zM132 144h1v6h-1zM136 145h1v2h-1zM140 145h1v2h-1zM137 147h1v2h-1zM139 147h1v2h-1zM138 149h1v2h-1zM136 151h2v1h-2zM142 145h3v1h-3zM142 149h3v1h-3zM142 146h1v3h-1zM142 150h1v2h-1zM145 146h1v3h-1zM148 145h2v1h-2zM148 149h2v1h-2zM147 146h1v1h-1zM147 148h1v1h-1zM150 146h1v1h-1zM147 147h4v1h-4zM153 143h3v1h-3zM153 146h3v1h-3zM153 149h3v1h-3zM152 144h1v2h-1zM152 148h1v1h-1zM156 144h1v1h-1zM156 147h1v2h-1zM159 145h2v1h-2zM159 149h2v1h-2zM158 146h1v3h-1zM161 146h1v1h-1zM161 148h1v1h-1zM163 145h1v1h-1zM163 147h1v3h-1zM165 145h1v1h-1zM163 146h2v1h-2zM168 143h1v1h-1zM168 146h1v3h-1zM167 145h2v1h-2zM167 149h3v1h-3zM171 145h3v1h-3zM171 149h3v1h-3zM171 146h1v3h-1zM171 150h1v2h-1zM174 146h1v3h-1zM177 143h1v2h-1zM177 146h1v3h-1zM176 145h4v1h-4zM178 149h2v1h-2zM188 143h1v1h-1zM188 145h1v4h-1zM187 144h2v1h-2zM187 149h3v1h-3zM192 143h2v1h-2zM192 146h2v1h-2zM192 149h2v1h-2zM191 144h1v2h-1zM191 147h1v2h-1zM194 144h1v2h-1zM194 147h1v2h-1zM197 143h1v1h-1zM197 145h1v1h-1zM197 149h1v1h-1zM201 143h1v1h-1zM201 147h1v1h-1zM201 149h1v1h-1zM196 144h1v1h-1zM198 144h1v1h-1zM198 147h1v2h-1zM200 144h1v2h-1zM200 148h1v1h-1zM199 146h1v1h-1zM202 148h1v1h-1zM221 143h4v1h-4zM221 146h4v1h-4zM221 144h1v2h-1zM221 147h1v3h-1zM225 144h1v2h-1zM225 148h1v2h-1zM224 147h1v1h-1zM227 145h1v4h-1zM230 145h1v4h-1zM228 149h3v1h-3zM233 145h3v1h-3zM232 146h1v1h-1zM233 147h2v1h-2zM235 148h1v1h-1zM232 149h3v1h-3zM238 143h1v2h-1zM238 146h1v3h-1zM237 145h4v1h-4zM239 149h2v1h-2zM249 143h1v1h-1zM249 145h1v4h-1zM248 144h2v1h-2zM248 149h3v1h-3zM253 143h2v1h-2zM253 149h2v1h-2zM252 144h1v2h-1zM252 147h1v2h-1zM255 144h1v1h-1zM255 146h1v3h-1zM254 145h2v1h-2zM252 146h2v1h-2zM258 143h1v1h-1zM258 145h1v1h-1zM258 149h1v1h-1zM262 143h1v1h-1zM262 147h1v1h-1zM262 149h1v1h-1zM257 144h1v1h-1zM259 144h1v1h-1zM259 147h1v2h-1zM261 144h1v2h-1zM261 148h1v1h-1zM260 146h1v1h-1zM263 148h1v1h-1zM285 143h1v6h-1zM282 147h1v2h-1zM283 149h2v1h-2zM288 145h2v1h-2zM290 146h1v1h-1zM290 148h1v1h-1zM288 147h3v1h-3zM288 149h3v1h-3zM287 148h1v1h-1zM292 145h1v2h-1zM296 145h1v2h-1zM293 147h1v2h-1zM295 147h1v2h-1zM294 149h1v1h-1zM299 145h2v1h-2zM301 146h1v1h-1zM301 148h1v1h-1zM299 147h3v1h-3zM299 149h3v1h-3zM298 148h1v1h-1zM304 143h3v1h-3zM304 146h3v1h-3zM304 149h3v1h-3zM303 144h1v2h-1zM303 148h1v1h-1zM307 144h1v1h-1zM307 147h1v2h-1zM310 145h2v1h-2zM310 149h2v1h-2zM309 146h1v3h-1zM312 146h1v1h-1zM312 148h1v1h-1zM314 145h1v1h-1zM314 147h1v3h-1zM316 145h1v1h-1zM314 146h2v1h-2zM319 143h1v1h-1zM319 146h1v3h-1zM318 145h2v1h-2zM318 149h3v1h-3zM322 145h3v1h-3zM322 149h3v1h-3zM322 146h1v3h-1zM322 150h1v2h-1zM325 146h1v3h-1zM328 143h1v2h-1zM328 146h1v3h-1zM327 145h4v1h-4zM329 149h2v1h-2zM337 143h4v1h-4zM340 144h1v2h-1zM339 146h1v2h-1zM338 148h1v2h-1zM343 143h1v1h-1zM343 145h1v1h-1zM343 149h1v1h-1zM347 143h1v1h-1zM347 147h1v1h-1zM347 149h1v1h-1zM342 144h1v1h-1zM344 144h1v1h-1zM344 147h1v2h-1zM346 144h1v2h-1zM346 148h1v1h-1zM345 146h1v1h-1zM348 148h1v1h-1z"/><path fill="#969390" d="M77 143h4v4h-4z"/><path fill="#7fa8d6" d="M123 143h4v4h-4z"/><path fill="#ebc4ad" d="M214 143h4v4h-4z"/><path fill="#f6e993" d="M275 143h4v4h-4z"/></svg>