<svg xmlns="http://www.w3.org/2000/svg" viewBox="0 0 423 220" width="846" height="440" role="img" aria-label="Crosery — pinned projects" shape-rendering="crispEdges"><path fill="#4a3427" fill-opacity="0.16" d="M3 5h418v1h1v1h1v211h-1v1h-1v1h-418v-1h-1v-1h-1v-211h1v-1h1z"/><path fill="#fff7ef" d="M2 4h418v215h-418zM0 6h2v211h-2zM420 6h2v211h-2zM1 5h1v1h-1zM1 217h1v1h-1zM420 5h1v1h-1zM420 217h1v1h-1z"/><path fill="#4a3427" d="M2 4h418v1h-418zM2 218h418v1h-418zM0 6h1v211h-1zM421 6h1v211h-1zM1 5h1v1h-1zM1 217h1v1h-1zM420 5h1v1h-1zM420 217h1v1h-1z"/><path fill="#f7e8d8" d="M2 5h418v1h-418zM2 217h418v1h-418zM1 6h1v211h-1zM420 6h1v211h-1z"/><path fill="#4a3427" d="M11 0h42v16h-42zM10 1h1v14h-1zM53 1h1v14h-1z"/><path fill="#fff7ef" d="M14 5h4v1h-4zM14 8h4v1h-4zM14 6h1v2h-1zM14 9h1v3h-1zM18 6h1v2h-1zM22 5h1v1h-1zM22 8h1v3h-1zM21 7h2v1h-2zM21 11h3v1h-3zM26 7h3v1h-3zM26 8h1v4h-1zM29 8h1v4h-1zM32 7h3v1h-3zM32 8h1v4h-1zM35 8h1v4h-1zM39 7h2v1h-2zM39 11h2v1h-2zM38 8h1v1h-1zM38 10h1v1h-1zM41 8h1v1h-1zM38 9h4v1h-4zM47 5h1v2h-1zM47 8h1v3h-1zM45 7h3v1h-3zM45 11h3v1h-3zM44 8h1v3h-1zM15 5h4v1h-4zM15 8h4v1h-4zM15 6h1v2h-1zM15 9h1v3h-1zM19 6h1v2h-1zM23 5h1v1h-1zM23 8h1v3h-1zM22 7h2v1h-2zM22 11h3v1h-3zM27 7h3v1h-3zM27 8h1v4h-1zM30 8h1v4h-1zM33 7h3v1h-3zM33 8h1v4h-1zM36 8h1v4h-1zM40 7h2v1h-2zM40 11h2v1h-2zM39 8h1v1h-1zM39 10h1v1h-1zM42 8h1v1h-1zM39 9h4v1h-4zM48 5h1v2h-1zM48 8h1v3h-1zM46 7h3v1h-3zM46 11h3v1h-3zM45 8h1v3h-1z"/><path fill="#8a6a55" d="M281 6h2v1h-2zM281 12h2v1h-2zM280 7h1v2h-1zM280 10h1v2h-1zM280 139h1v2h-1zM280 202h1v2h-1zM283 7h1v1h-1zM283 10h1v2h-1zM283 137h1v2h-1zM283 200h1v2h-1zM280 9h3v1h-3zM290 8h3v1h-3zM290 12h3v1h-3zM290 9h1v3h-1zM290 13h1v2h-1zM290 76h1v2h-1zM290 138h1v1h-1zM290 140h1v1h-1zM290 201h1v1h-1zM290 203h1v1h-1zM293 9h1v3h-1zM293 30h1v2h-1zM293 74h1v2h-1zM293 138h1v1h-1zM293 201h1v1h-1zM296 6h1v1h-1zM296 9h1v3h-1zM296 33h1v2h-1zM295 8h2v1h-2zM295 12h3v1h-3zM295 74h3v1h-3zM295 78h3v1h-3zM299 8h3v1h-3zM299 34h3v1h-3zM299 9h1v4h-1zM299 136h1v1h-1zM299 139h1v2h-1zM299 199h1v1h-1zM299 202h1v2h-1zM302 9h1v4h-1zM304 8h3v1h-3zM304 9h1v4h-1zM304 28h1v2h-1zM304 31h1v3h-1zM304 138h1v1h-1zM304 140h1v1h-1zM304 201h1v1h-1zM304 203h1v1h-1zM307 9h1v4h-1zM310 8h2v1h-2zM310 12h2v1h-2zM310 137h2v1h-2zM310 200h2v1h-2zM309 9h1v1h-1zM309 11h1v1h-1zM309 73h1v1h-1zM309 76h1v2h-1zM312 9h1v1h-1zM309 10h4v1h-4zM317 6h1v2h-1zM317 9h1v3h-1zM317 138h1v3h-1zM317 201h1v3h-1zM315 8h3v1h-3zM315 12h3v1h-3zM314 9h1v3h-1zM314 75h1v1h-1zM314 77h1v1h-1zM314 138h1v3h-1zM314 142h1v2h-1zM314 201h1v3h-1zM314 205h1v2h-1zM328 9h2v2h-2zM339 8h1v1h-1zM339 10h1v3h-1zM341 8h1v1h-1zM339 9h2v1h-2zM344 8h2v1h-2zM344 12h2v1h-2zM343 9h1v1h-1zM343 11h1v1h-1zM346 9h1v1h-1zM343 10h4v1h-4zM350 6h2v1h-2zM349 7h1v1h-1zM349 9h1v4h-1zM348 8h4v1h-4zM353 8h1v1h-1zM353 10h1v3h-1zM355 8h1v1h-1zM353 9h2v1h-2zM358 8h2v1h-2zM358 12h2v1h-2zM357 9h1v1h-1zM357 11h1v1h-1zM360 9h1v1h-1zM357 10h4v1h-4zM363 8h3v1h-3zM362 9h1v1h-1zM363 10h2v1h-2zM365 11h1v1h-1zM362 12h3v1h-3zM367 6h1v2h-1zM367 9h1v4h-1zM367 8h3v1h-3zM370 9h1v4h-1zM373 8h2v1h-2zM373 12h2v1h-2zM372 9h1v1h-1zM372 11h1v1h-1zM375 9h1v1h-1zM372 10h4v1h-4zM380 6h1v2h-1zM380 9h1v3h-1zM378 8h3v1h-3zM378 12h3v1h-3zM377 9h1v3h-1zM390 6h1v2h-1zM390 9h1v3h-1zM390 31h1v3h-1zM388 8h3v1h-3zM388 12h3v1h-3zM387 9h1v3h-1zM393 8h2v1h-2zM395 9h1v1h-1zM395 11h1v1h-1zM395 31h1v3h-1zM393 10h3v1h-3zM393 12h3v1h-3zM392 11h1v1h-1zM398 6h1v1h-1zM398 9h1v3h-1zM398 28h1v2h-1zM398 31h1v3h-1zM397 8h2v1h-2zM397 93h2v1h-2zM397 156h2v1h-2zM397 12h3v1h-3zM397 95h3v1h-3zM397 97h3v1h-3zM397 158h3v1h-3zM397 160h3v1h-3zM401 6h2v1h-2zM401 30h2v1h-2zM402 7h1v5h-1zM402 12h2v1h-2zM402 99h2v1h-2zM402 162h2v1h-2zM405 8h1v2h-1zM405 30h1v2h-1zM409 8h1v2h-1zM409 30h1v2h-1zM409 94h1v3h-1zM409 157h1v3h-1zM406 10h1v2h-1zM406 32h1v2h-1zM406 94h1v3h-1zM406 157h1v3h-1zM408 10h1v2h-1zM408 32h1v2h-1zM407 12h1v2h-1zM407 34h1v2h-1zM405 14h2v1h-2zM405 36h2v1h-2zM181 28h1v2h-1zM181 31h1v3h-1zM181 94h1v3h-1zM181 157h1v3h-1zM180 30h4v1h-4zM182 34h2v1h-2zM182 93h2v1h-2zM182 97h2v1h-2zM182 156h2v1h-2zM182 160h2v1h-2zM186 30h2v1h-2zM186 34h2v1h-2zM185 31h1v3h-1zM188 31h1v3h-1zM193 28h1v2h-1zM193 31h1v3h-1zM191 30h3v1h-3zM191 34h3v1h-3zM190 31h1v3h-1zM196 30h2v1h-2zM198 31h1v1h-1zM198 33h1v1h-1zM196 32h3v1h-3zM196 34h3v1h-3zM195 33h1v1h-1zM200 30h1v2h-1zM204 30h1v2h-1zM204 94h1v3h-1zM204 157h1v3h-1zM201 32h1v2h-1zM201 94h1v3h-1zM201 157h1v3h-1zM203 32h1v2h-1zM202 34h1v2h-1zM200 36h2v1h-2zM50 28h3v1h-3zM50 35h3v1h-3zM49 29h1v6h-1zM49 137h1v1h-1zM49 139h1v2h-1zM49 200h1v1h-1zM49 202h1v2h-1zM53 29h1v1h-1zM53 31h1v2h-1zM52 30h2v1h-2zM51 31h1v2h-1zM51 134h1v2h-1zM51 197h1v2h-1zM51 33h3v1h-3zM56 30h3v1h-3zM55 31h1v1h-1zM56 32h2v1h-2zM58 33h1v1h-1zM55 34h3v1h-3zM61 28h1v2h-1zM61 31h1v3h-1zM60 30h4v1h-4zM62 34h2v1h-2zM66 30h2v1h-2zM68 31h1v1h-1zM68 33h1v1h-1zM68 74h1v1h-1zM68 76h1v2h-1zM68 199h1v2h-1zM68 202h1v3h-1zM66 32h3v1h-3zM66 34h3v1h-3zM65 33h1v1h-1zM65 71h1v3h-1zM70 28h1v2h-1zM70 31h1v3h-1zM70 71h1v2h-1zM70 136h1v6h-1zM70 30h3v1h-3zM70 34h3v1h-3zM73 31h1v3h-1zM75 28h2v1h-2zM76 29h1v5h-1zM76 141h1v2h-1zM76 204h1v2h-1zM76 34h2v1h-2zM79 30h1v2h-1zM83 30h1v2h-1zM83 138h1v3h-1zM80 32h1v2h-1zM80 138h1v3h-1zM80 142h1v2h-1zM82 32h1v2h-1zM81 34h1v2h-1zM81 198h1v2h-1zM81 201h1v3h-1zM79 36h2v1h-2zM86 30h2v1h-2zM86 137h2v1h-2zM86 141h2v1h-2zM88 31h1v1h-1zM88 33h1v1h-1zM88 138h1v1h-1zM88 201h1v4h-1zM86 32h3v1h-3zM86 34h3v1h-3zM85 33h1v1h-1zM85 138h1v1h-1zM85 140h1v1h-1zM85 198h1v2h-1zM85 201h1v4h-1zM91 28h1v1h-1zM91 31h1v3h-1zM90 30h2v1h-2zM90 34h3v1h-3zM64 71h1v2h-1zM69 71h1v3h-1zM66 74h1v1h-1zM66 76h1v2h-1zM67 75h1v3h-1zM106 72h5v1h-5zM108 73h1v6h-1zM112 74h1v2h-1zM112 138h1v3h-1zM116 74h1v2h-1zM113 76h1v2h-1zM115 76h1v2h-1zM115 135h1v2h-1zM115 138h1v3h-1zM114 78h1v2h-1zM112 80h2v1h-2zM118 74h3v1h-3zM118 78h3v1h-3zM118 75h1v3h-1zM118 79h1v2h-1zM121 75h1v3h-1zM124 74h2v1h-2zM124 78h2v1h-2zM123 75h1v1h-1zM123 77h1v1h-1zM126 75h1v1h-1zM123 76h4v1h-4zM129 72h3v1h-3zM129 75h3v1h-3zM129 78h3v1h-3zM128 73h1v2h-1zM128 77h1v1h-1zM132 73h1v1h-1zM132 76h1v2h-1zM135 74h2v1h-2zM135 78h2v1h-2zM134 75h1v3h-1zM137 75h1v1h-1zM137 77h1v1h-1zM139 74h1v1h-1zM139 76h1v3h-1zM141 74h1v1h-1zM139 75h2v1h-2zM144 72h1v1h-1zM144 75h1v3h-1zM143 74h2v1h-2zM143 78h3v1h-3zM147 74h3v1h-3zM147 78h3v1h-3zM147 75h1v3h-1zM147 79h1v2h-1zM150 75h1v3h-1zM153 72h1v2h-1zM153 75h1v3h-1zM152 74h4v1h-4zM154 78h2v1h-2zM386 28h1v2h-1zM386 31h1v3h-1zM386 94h1v3h-1zM386 157h1v3h-1zM385 30h4v1h-4zM387 34h2v1h-2zM391 30h2v1h-2zM391 34h2v1h-2zM393 31h1v3h-1zM396 30h3v1h-3zM396 34h3v1h-3zM403 31h1v1h-1zM403 33h1v1h-1zM401 32h3v1h-3zM401 34h3v1h-3zM400 33h1v1h-1zM275 28h3v1h-3zM275 35h3v1h-3zM274 29h1v6h-1zM278 29h1v1h-1zM278 31h1v2h-1zM277 30h2v1h-2zM276 31h1v2h-1zM276 33h3v1h-3zM280 28h5v1h-5zM282 29h1v6h-1zM282 139h1v2h-1zM282 202h1v2h-1zM286 32h5v1h-5zM294 28h1v2h-1zM295 30h1v2h-1zM295 75h1v3h-1zM295 79h1v2h-1zM295 136h1v2h-1zM295 140h1v1h-1zM295 199h1v2h-1zM295 203h1v1h-1zM293 32h3v1h-3zM292 33h1v2h-1zM292 76h1v2h-1zM298 30h1v4h-1zM298 75h1v3h-1zM301 30h1v4h-1zM301 138h1v3h-1zM301 201h1v3h-1zM303 30h4v1h-4zM305 34h2v1h-2zM309 30h2v1h-2zM309 34h2v1h-2zM308 31h1v3h-1zM308 137h1v1h-1zM308 200h1v1h-1zM311 31h1v3h-1zM311 75h1v3h-1zM311 135h1v1h-1zM311 138h1v3h-1zM311 198h1v1h-1zM311 201h1v3h-1zM260 71h1v2h-1zM261 71h1v3h-1zM265 71h1v3h-1zM266 71h1v2h-1zM262 74h1v1h-1zM262 76h1v2h-1zM264 74h1v1h-1zM264 76h1v2h-1zM263 75h1v3h-1zM283 72h5v1h-5zM285 73h1v6h-1zM285 138h1v3h-1zM285 142h1v2h-1zM285 201h1v3h-1zM285 205h1v2h-1zM289 74h1v2h-1zM291 78h1v2h-1zM289 80h2v1h-2zM301 74h2v1h-2zM301 78h2v1h-2zM300 75h1v1h-1zM300 77h1v1h-1zM303 75h1v1h-1zM300 76h4v1h-4zM306 72h3v1h-3zM306 75h3v1h-3zM306 78h3v1h-3zM305 73h1v2h-1zM305 77h1v1h-1zM312 74h2v1h-2zM312 78h2v1h-2zM316 74h1v1h-1zM316 76h1v3h-1zM318 74h1v1h-1zM316 75h2v1h-2zM321 72h1v1h-1zM321 75h1v3h-1zM320 74h2v1h-2zM320 78h3v1h-3zM324 74h3v1h-3zM324 78h3v1h-3zM324 75h1v3h-1zM324 79h1v2h-1zM327 75h1v3h-1zM330 72h1v2h-1zM330 75h1v3h-1zM329 74h4v1h-4zM331 78h2v1h-2zM172 91h2v1h-2zM171 92h1v2h-1zM173 92h1v4h-1zM173 97h1v1h-1zM173 158h1v2h-1zM170 94h1v2h-1zM170 155h1v2h-1zM170 96h4v1h-4zM170 154h4v1h-4zM175 93h2v1h-2zM175 156h2v1h-2zM178 93h1v1h-1zM178 156h1v1h-1zM175 94h1v4h-1zM175 157h1v4h-1zM177 94h1v4h-1zM177 157h1v4h-1zM179 94h1v4h-1zM179 157h1v4h-1zM184 94h1v3h-1zM184 157h1v3h-1zM192 93h2v1h-2zM192 156h2v1h-2zM194 94h1v1h-1zM194 96h1v1h-1zM194 157h1v1h-1zM194 159h1v1h-1zM192 95h3v1h-3zM192 97h3v1h-3zM192 158h3v1h-3zM192 160h3v1h-3zM191 96h1v1h-1zM191 159h1v1h-1zM197 93h3v1h-3zM197 97h3v1h-3zM197 156h3v1h-3zM197 160h3v1h-3zM196 94h1v3h-1zM196 157h1v3h-1zM199 94h1v3h-1zM199 98h1v1h-1zM199 157h1v3h-1zM199 161h1v1h-1zM197 99h2v1h-2zM197 162h2v1h-2zM202 93h2v1h-2zM202 97h2v1h-2zM202 156h2v1h-2zM202 160h2v1h-2zM45 134h1v2h-1zM45 197h1v2h-1zM46 134h1v3h-1zM46 197h1v3h-1zM50 134h1v3h-1zM50 197h1v3h-1zM47 137h1v1h-1zM47 139h1v2h-1zM47 200h1v1h-1zM47 202h1v2h-1zM48 138h1v3h-1zM48 201h1v3h-1zM68 135h5v1h-5zM74 137h1v2h-1zM74 200h1v2h-1zM78 137h1v2h-1zM78 200h1v2h-1zM75 139h1v2h-1zM75 202h1v2h-1zM77 139h1v2h-1zM77 202h1v2h-1zM74 143h2v1h-2zM74 206h2v1h-2zM80 137h3v1h-3zM80 141h3v1h-3zM85 139h4v1h-4zM91 135h3v1h-3zM91 138h3v1h-3zM91 141h3v1h-3zM90 136h1v2h-1zM90 140h1v1h-1zM90 201h1v3h-1zM94 136h1v1h-1zM94 139h1v2h-1zM97 137h2v1h-2zM97 141h2v1h-2zM96 138h1v3h-1zM99 138h1v1h-1zM99 140h1v1h-1zM101 137h1v1h-1zM101 139h1v3h-1zM103 137h1v1h-1zM101 138h2v1h-2zM106 135h1v1h-1zM106 138h1v3h-1zM105 137h2v1h-2zM105 141h3v1h-3zM109 137h3v1h-3zM109 141h3v1h-3zM109 138h1v3h-1zM109 142h1v2h-1zM114 137h4v1h-4zM116 141h2v1h-2zM382 91h2v1h-2zM382 97h2v1h-2zM382 154h2v1h-2zM382 160h2v1h-2zM381 92h1v2h-1zM381 95h1v2h-1zM381 155h1v2h-1zM381 158h1v2h-1zM384 92h1v1h-1zM384 95h1v2h-1zM384 155h1v1h-1zM384 158h1v2h-1zM381 94h3v1h-3zM381 157h3v1h-3zM389 91h1v2h-1zM389 94h1v3h-1zM389 154h1v2h-1zM389 157h1v3h-1zM387 93h3v1h-3zM387 97h3v1h-3zM387 156h3v1h-3zM387 160h3v1h-3zM399 94h1v1h-1zM399 96h1v1h-1zM399 157h1v1h-1zM399 159h1v1h-1zM396 96h1v1h-1zM396 159h1v1h-1zM402 93h3v1h-3zM402 97h3v1h-3zM402 156h3v1h-3zM402 160h3v1h-3zM401 94h1v3h-1zM401 157h1v3h-1zM404 94h1v3h-1zM404 98h1v1h-1zM404 157h1v3h-1zM404 161h1v1h-1zM407 93h2v1h-2zM407 97h2v1h-2zM407 156h2v1h-2zM407 160h2v1h-2zM250 134h1v2h-1zM250 197h1v2h-1zM251 134h1v3h-1zM251 197h1v3h-1zM255 134h1v3h-1zM255 197h1v3h-1zM256 134h1v2h-1zM256 197h1v2h-1zM252 137h1v1h-1zM252 139h1v2h-1zM252 200h1v1h-1zM252 202h1v2h-1zM254 137h1v1h-1zM254 139h1v2h-1zM254 200h1v1h-1zM254 202h1v2h-1zM253 138h1v3h-1zM253 201h1v3h-1zM273 135h5v1h-5zM273 198h5v1h-5zM275 136h1v6h-1zM275 199h1v6h-1zM279 137h1v2h-1zM279 200h1v2h-1zM281 141h1v2h-1zM281 204h1v2h-1zM279 143h2v1h-2zM279 206h2v1h-2zM285 137h3v1h-3zM285 141h3v1h-3zM285 200h3v1h-3zM285 204h3v1h-3zM288 138h1v3h-1zM288 201h1v3h-1zM291 137h2v1h-2zM291 141h2v1h-2zM291 200h2v1h-2zM291 204h2v1h-2zM290 139h4v1h-4zM290 202h4v1h-4zM296 135h3v1h-3zM296 138h3v1h-3zM296 141h3v1h-3zM296 198h3v1h-3zM296 201h3v1h-3zM296 204h3v1h-3zM302 137h2v1h-2zM302 141h2v1h-2zM302 200h2v1h-2zM302 204h2v1h-2zM306 137h1v1h-1zM306 139h1v3h-1zM306 200h1v1h-1zM306 202h1v3h-1zM306 138h2v1h-2zM306 201h2v1h-2zM310 141h3v1h-3zM310 204h3v1h-3zM314 137h3v1h-3zM314 141h3v1h-3zM314 200h3v1h-3zM314 204h3v1h-3zM320 135h1v2h-1zM320 138h1v3h-1zM320 198h1v2h-1zM320 201h1v3h-1zM319 137h4v1h-4zM319 200h4v1h-4zM321 141h2v1h-2zM321 204h2v1h-2zM170 157h3v1h-3zM170 160h3v1h-3zM68 198h4v1h-4zM68 201h4v1h-4zM72 199h1v2h-1zM80 200h4v1h-4zM82 204h2v1h-2zM85 200h3v1h-3zM91 200h2v1h-2zM91 204h2v1h-2zM93 201h1v3h-1zM95 200h3v1h-3zM95 201h1v4h-1zM98 201h1v4h-1z"/><path fill="#4a3427" d="M15 27h1v1h-1zM15 33h1v1h-1zM15 90h1v1h-1zM15 96h1v1h-1zM15 153h1v1h-1zM15 159h1v1h-1zM14 28h1v1h-1zM14 32h1v1h-1zM14 91h1v1h-1zM14 95h1v1h-1zM14 154h1v1h-1zM14 158h1v1h-1zM16 28h1v1h-1zM16 32h1v1h-1zM16 91h1v1h-1zM16 95h1v1h-1zM16 154h1v1h-1zM16 158h1v1h-1zM13 29h1v1h-1zM13 31h1v1h-1zM13 92h1v1h-1zM13 94h1v1h-1zM13 155h1v1h-1zM13 157h1v1h-1zM17 29h1v1h-1zM17 31h1v1h-1zM17 92h1v1h-1zM17 94h1v1h-1zM17 155h1v1h-1zM17 157h1v1h-1zM12 30h1v1h-1zM12 93h1v1h-1zM12 156h1v1h-1zM18 30h1v1h-1zM18 93h1v1h-1zM18 156h1v1h-1zM23 30h2v1h-2zM23 34h2v1h-2zM23 95h2v1h-2zM23 127h2v1h-2zM22 31h1v3h-1zM22 44h1v5h-1zM22 91h1v4h-1zM22 96h1v2h-1zM22 121h1v2h-1zM22 157h1v3h-1zM22 161h1v2h-1zM22 174h1v2h-1zM25 31h1v3h-1zM25 93h1v2h-1zM25 96h1v2h-1zM25 105h1v1h-1zM25 157h1v3h-1zM25 171h1v2h-1zM28 30h1v1h-1zM28 32h1v3h-1zM28 45h1v1h-1zM28 47h1v3h-1zM28 58h1v5h-1zM28 94h1v3h-1zM28 121h1v2h-1zM28 124h1v1h-1zM28 157h1v3h-1zM28 161h1v2h-1zM30 30h1v1h-1zM30 45h1v1h-1zM30 121h1v2h-1zM30 124h1v2h-1zM30 186h1v3h-1zM28 31h2v1h-2zM28 46h2v1h-2zM28 63h2v1h-2zM28 185h2v1h-2zM28 189h2v1h-2zM34 30h2v1h-2zM34 34h2v1h-2zM34 112h2v1h-2zM33 31h1v3h-1zM33 110h1v1h-1zM33 123h1v2h-1zM36 31h1v1h-1zM36 33h1v1h-1zM36 60h1v1h-1zM36 62h1v1h-1zM36 91h1v2h-1zM36 94h1v3h-1zM36 110h1v2h-1zM36 126h1v2h-1zM36 154h1v2h-1zM36 157h1v3h-1zM40 30h2v1h-2zM42 31h1v1h-1zM42 33h1v1h-1zM42 57h1v2h-1zM42 60h1v3h-1zM40 32h3v1h-3zM40 34h3v1h-3zM39 33h1v1h-1zM39 60h1v1h-1zM39 75h1v1h-1zM39 106h1v1h-1zM39 108h1v1h-1zM39 111h1v1h-1zM24 30h2v1h-2zM24 34h2v1h-2zM24 57h2v1h-2zM24 189h2v1h-2zM23 31h1v3h-1zM23 58h1v1h-1zM23 60h1v4h-1zM23 91h1v4h-1zM23 96h1v2h-1zM23 112h1v1h-1zM23 157h1v3h-1zM23 161h1v2h-1zM23 171h1v2h-1zM23 183h1v2h-1zM23 186h1v3h-1zM26 31h1v3h-1zM26 44h1v5h-1zM26 93h1v1h-1zM26 97h1v1h-1zM26 106h1v1h-1zM26 120h1v5h-1zM26 126h1v1h-1zM26 157h1v3h-1zM26 174h1v2h-1zM29 30h1v1h-1zM29 32h1v3h-1zM29 94h1v3h-1zM29 112h1v1h-1zM29 123h1v1h-1zM29 157h1v3h-1zM29 161h1v2h-1zM29 170h1v5h-1zM31 30h1v1h-1zM31 60h1v1h-1zM31 62h1v1h-1zM31 94h1v3h-1zM31 157h1v3h-1zM29 31h2v1h-2zM29 93h2v1h-2zM29 97h2v1h-2zM35 30h2v1h-2zM35 34h2v1h-2zM34 31h1v3h-1zM34 60h1v1h-1zM34 201h1v1h-1zM37 31h1v1h-1zM37 33h1v1h-1zM37 48h1v1h-1zM37 73h1v1h-1zM37 77h1v1h-1zM37 125h1v1h-1zM37 172h1v1h-1zM41 30h2v1h-2zM41 93h2v1h-2zM41 97h2v1h-2zM43 31h1v1h-1zM43 33h1v1h-1zM43 78h1v1h-1zM43 94h1v3h-1zM43 105h1v2h-1zM43 110h1v1h-1zM43 113h1v1h-1zM43 169h1v2h-1zM43 172h1v3h-1zM41 32h3v1h-3zM41 34h3v1h-3zM40 33h1v1h-1zM40 46h1v1h-1zM40 48h1v1h-1zM40 73h1v2h-1zM40 76h1v2h-1zM40 94h1v3h-1zM40 110h1v1h-1zM40 122h1v5h-1zM40 174h1v1h-1zM23 43h3v1h-3zM23 49h3v1h-3zM23 156h3v1h-3zM23 160h3v1h-3zM23 173h3v1h-3zM33 45h2v1h-2zM33 49h2v1h-2zM33 72h2v1h-2zM33 75h2v1h-2zM33 78h2v1h-2zM33 135h2v1h-2zM33 141h2v1h-2zM33 198h2v1h-2zM33 204h2v1h-2zM32 46h1v3h-1zM32 73h1v2h-1zM32 76h1v2h-1zM32 94h1v3h-1zM32 111h1v1h-1zM32 125h1v1h-1zM32 136h1v2h-1zM32 139h1v2h-1zM32 157h1v3h-1zM32 186h1v3h-1zM32 190h1v2h-1zM32 199h1v1h-1zM32 203h1v1h-1zM35 46h1v1h-1zM35 48h1v1h-1zM35 73h1v2h-1zM35 76h1v2h-1zM35 91h1v2h-1zM35 94h1v3h-1zM35 124h1v2h-1zM35 136h1v1h-1zM35 139h1v2h-1zM35 154h1v2h-1zM35 157h1v3h-1zM35 186h1v3h-1zM35 199h1v2h-1zM35 202h1v2h-1zM38 45h2v1h-2zM38 72h2v1h-2zM38 78h2v1h-2zM38 127h2v1h-2zM38 173h2v1h-2zM38 47h3v1h-3zM38 49h3v1h-3zM38 171h3v1h-3zM48 43h1v1h-1zM48 46h1v3h-1zM48 105h1v1h-1zM48 107h1v1h-1zM48 109h1v2h-1zM48 112h1v2h-1zM48 159h1v1h-1zM47 45h2v1h-2zM47 72h2v1h-2zM47 78h2v1h-2zM47 49h3v1h-3zM47 75h3v1h-3zM47 93h3v1h-3zM47 97h3v1h-3zM52 45h3v1h-3zM52 106h3v1h-3zM51 46h1v1h-1zM51 60h1v3h-1zM51 72h1v4h-1zM51 77h1v2h-1zM51 157h1v1h-1zM51 159h1v1h-1zM52 47h2v1h-2zM52 59h2v1h-2zM52 63h2v1h-2zM52 110h2v1h-2zM52 172h2v1h-2zM54 48h1v1h-1zM54 60h1v3h-1zM54 74h1v1h-1zM54 78h1v1h-1zM54 107h1v1h-1zM54 157h1v4h-1zM54 171h1v1h-1zM51 49h3v1h-3zM62 43h1v2h-1zM62 46h1v3h-1zM62 93h1v5h-1zM62 158h1v4h-1zM61 45h4v1h-4zM63 49h2v1h-2zM66 43h1v2h-1zM66 46h1v4h-1zM66 60h1v3h-1zM66 64h1v2h-1zM66 96h1v1h-1zM66 183h1v2h-1zM66 186h1v3h-1zM66 45h3v1h-3zM66 59h3v1h-3zM66 63h3v1h-3zM66 95h3v1h-3zM66 97h3v1h-3zM69 46h1v4h-1zM69 60h1v3h-1zM69 94h1v1h-1zM69 96h1v1h-1zM72 45h2v1h-2zM72 49h2v1h-2zM72 59h2v1h-2zM71 46h1v1h-1zM71 48h1v1h-1zM71 62h1v1h-1zM71 123h1v1h-1zM71 169h1v2h-1zM71 172h1v3h-1zM74 46h1v1h-1zM74 60h1v1h-1zM74 62h1v1h-1zM74 73h1v2h-1zM74 119h1v1h-1zM74 126h1v1h-1zM71 47h4v1h-4zM83 43h1v2h-1zM83 60h1v1h-1zM83 62h1v1h-1zM83 75h1v2h-1zM83 157h1v4h-1zM83 169h1v4h-1zM83 174h1v2h-1zM83 186h1v1h-1zM83 188h1v1h-1zM82 45h1v2h-1zM82 96h1v1h-1zM82 106h1v3h-1zM82 110h1v3h-1zM82 121h1v2h-1zM82 124h1v2h-1zM84 45h1v2h-1zM84 73h1v2h-1zM84 91h1v2h-1zM84 94h1v4h-1zM84 108h1v1h-1zM84 110h1v1h-1zM84 123h1v1h-1zM84 157h1v4h-1zM82 47h3v1h-3zM81 48h1v2h-1zM81 96h1v1h-1zM81 172h1v1h-1zM81 174h1v1h-1zM85 48h1v2h-1zM85 91h1v2h-1zM85 94h1v4h-1zM85 107h1v1h-1zM85 111h1v1h-1zM85 124h1v1h-1zM85 172h1v1h-1zM85 174h1v1h-1zM85 186h1v3h-1zM87 43h4v1h-4zM87 49h4v1h-4zM87 44h1v5h-1zM87 94h1v4h-1zM87 119h1v2h-1zM87 122h1v5h-1zM87 157h1v4h-1zM91 44h1v5h-1zM91 93h1v1h-1zM91 95h1v3h-1zM91 109h1v3h-1zM93 43h5v1h-5zM93 49h5v1h-5zM93 44h1v2h-1zM93 47h1v2h-1zM93 60h1v1h-1zM93 62h1v1h-1zM93 93h1v1h-1zM93 157h1v3h-1zM93 161h1v1h-1zM93 172h1v3h-1zM93 185h1v1h-1zM93 189h1v1h-1zM93 46h4v1h-4zM93 61h4v1h-4zM93 108h4v1h-4zM106 43h2v1h-2zM105 44h1v1h-1zM105 46h1v4h-1zM104 45h4v1h-4zM104 124h4v1h-4zM110 45h2v1h-2zM110 49h2v1h-2zM109 46h1v3h-1zM109 94h1v1h-1zM112 46h1v3h-1zM112 60h1v3h-1zM114 45h1v1h-1zM114 47h1v3h-1zM114 120h1v1h-1zM116 45h1v1h-1zM116 108h1v1h-1zM114 46h2v1h-2zM123 45h1v3h-1zM123 94h1v4h-1zM123 169h1v2h-1zM123 172h1v3h-1zM123 186h1v4h-1zM125 45h1v3h-1zM125 60h1v4h-1zM125 96h1v1h-1zM125 186h1v1h-1zM125 188h1v1h-1zM127 45h1v3h-1zM127 120h1v1h-1zM127 122h1v1h-1zM127 125h1v1h-1zM127 172h1v3h-1zM124 48h1v2h-1zM124 124h1v2h-1zM126 48h1v2h-1zM126 96h1v1h-1zM130 45h2v1h-2zM130 49h2v1h-2zM130 186h2v1h-2zM129 46h1v3h-1zM129 94h1v1h-1zM129 96h1v1h-1zM129 107h1v2h-1zM129 111h1v1h-1zM132 46h1v3h-1zM132 60h1v1h-1zM132 94h1v3h-1zM132 121h1v2h-1zM132 171h1v1h-1zM132 173h1v3h-1zM132 185h1v1h-1zM134 45h1v1h-1zM134 47h1v3h-1zM134 94h1v1h-1zM134 96h1v1h-1zM134 121h1v2h-1zM134 171h1v1h-1zM134 186h1v1h-1zM134 188h1v1h-1zM136 45h1v1h-1zM136 121h1v2h-1zM136 124h1v1h-1zM134 46h2v1h-2zM138 43h1v4h-1zM138 48h1v2h-1zM138 63h1v1h-1zM138 91h1v4h-1zM138 96h1v2h-1zM138 109h1v4h-1zM138 119h1v1h-1zM138 122h1v1h-1zM138 124h1v1h-1zM138 127h1v1h-1zM141 45h1v1h-1zM141 49h1v1h-1zM141 93h1v1h-1zM141 97h1v1h-1zM141 121h1v2h-1zM141 124h1v3h-1zM140 46h1v1h-1zM140 48h1v1h-1zM140 93h1v2h-1zM140 96h1v2h-1zM140 108h1v1h-1zM140 110h1v3h-1zM140 127h1v1h-1zM138 47h2v1h-2zM138 95h2v1h-2zM144 43h1v1h-1zM144 46h1v3h-1zM144 122h1v1h-1zM143 45h2v1h-2zM143 49h3v1h-3zM147 45h3v1h-3zM147 46h1v4h-1zM147 124h1v2h-1zM150 46h1v4h-1zM150 58h1v2h-1zM150 62h1v2h-1zM150 122h1v2h-1zM150 125h1v2h-1zM153 45h3v1h-3zM153 49h3v1h-3zM153 63h3v1h-3zM152 46h1v3h-1zM152 59h1v4h-1zM152 119h1v1h-1zM155 46h1v3h-1zM155 50h1v1h-1zM155 59h1v4h-1zM155 119h1v1h-1zM155 123h1v1h-1zM155 183h1v1h-1zM155 186h1v3h-1zM153 51h2v1h-2zM162 45h1v3h-1zM162 169h1v1h-1zM162 172h1v3h-1zM164 45h1v3h-1zM166 45h1v3h-1zM166 173h1v2h-1zM166 185h1v4h-1zM163 48h1v2h-1zM163 184h1v5h-1zM165 48h1v2h-1zM165 120h1v3h-1zM165 124h1v3h-1zM165 171h1v2h-1zM169 43h1v1h-1zM169 46h1v3h-1zM169 120h1v3h-1zM169 124h1v3h-1zM169 171h1v2h-1zM169 185h1v4h-1zM168 45h2v1h-2zM168 59h2v1h-2zM168 49h3v1h-3zM168 61h3v1h-3zM168 63h3v1h-3zM173 43h1v2h-1zM173 46h1v3h-1zM172 45h4v1h-4zM174 49h2v1h-2zM177 43h1v2h-1zM177 46h1v4h-1zM177 59h1v2h-1zM177 183h1v2h-1zM177 186h1v3h-1zM177 45h3v1h-3zM180 46h1v4h-1zM180 61h1v2h-1zM180 108h1v1h-1zM180 110h1v3h-1zM188 45h2v1h-2zM190 46h1v1h-1zM190 48h1v1h-1zM188 47h3v1h-3zM188 49h3v1h-3zM187 48h1v1h-1zM22 59h4v1h-4zM22 185h4v1h-4zM27 57h2v1h-2zM32 59h2v1h-2zM32 63h2v1h-2zM32 113h2v1h-2zM31 61h4v1h-4zM37 59h2v1h-2zM37 63h2v1h-2zM37 97h2v1h-2zM37 112h2v1h-2zM37 160h2v1h-2zM37 185h2v1h-2zM36 61h4v1h-4zM41 59h4v1h-4zM43 63h2v1h-2zM43 112h2v1h-2zM58 57h2v1h-2zM58 93h2v1h-2zM57 58h1v1h-1zM57 60h1v4h-1zM57 120h1v1h-1zM57 123h1v4h-1zM57 157h1v4h-1zM57 173h1v2h-1zM56 59h4v1h-4zM72 61h3v1h-3zM72 63h3v1h-3zM72 156h3v1h-3zM76 59h1v1h-1zM76 61h1v3h-1zM76 126h1v1h-1zM76 157h1v4h-1zM76 172h1v1h-1zM78 59h1v1h-1zM78 94h1v1h-1zM78 121h1v1h-1zM78 172h1v3h-1zM78 186h1v3h-1zM76 60h2v1h-2zM81 59h2v1h-2zM81 185h2v1h-2zM81 61h3v1h-3zM81 63h3v1h-3zM81 187h3v1h-3zM81 189h3v1h-3zM80 62h1v1h-1zM80 78h1v2h-1zM80 121h1v2h-1zM80 124h1v2h-1zM80 154h1v1h-1zM80 157h1v3h-1zM80 188h1v1h-1zM85 57h2v1h-2zM85 72h2v1h-2zM86 58h1v5h-1zM86 73h1v4h-1zM86 78h1v1h-1zM86 106h1v1h-1zM86 112h1v1h-1zM86 157h1v4h-1zM86 171h1v1h-1zM86 175h1v1h-1zM86 63h2v1h-2zM86 127h2v1h-2zM86 185h2v1h-2zM86 189h2v1h-2zM89 57h2v1h-2zM89 73h2v1h-2zM89 108h2v1h-2zM89 112h2v1h-2zM90 58h1v5h-1zM90 72h1v1h-1zM90 74h1v4h-1zM90 93h1v1h-1zM90 95h1v3h-1zM90 120h1v2h-1zM90 157h1v3h-1zM90 183h1v4h-1zM90 188h1v2h-1zM90 63h2v1h-2zM90 94h2v1h-2zM90 162h2v1h-2zM90 187h2v1h-2zM94 59h2v1h-2zM94 63h2v1h-2zM94 73h2v1h-2zM94 177h2v1h-2zM96 60h1v1h-1zM96 91h1v1h-1zM96 94h1v3h-1zM96 120h1v6h-1zM96 172h1v3h-1zM96 176h1v1h-1zM98 57h2v1h-2zM99 58h1v5h-1zM99 63h2v1h-2zM99 108h2v1h-2zM99 112h2v1h-2zM99 171h2v1h-2zM99 175h2v1h-2zM108 59h2v1h-2zM108 93h2v1h-2zM108 97h2v1h-2zM110 60h1v1h-1zM110 62h1v1h-1zM110 94h1v1h-1zM110 186h1v3h-1zM108 61h3v1h-3zM108 63h3v1h-3zM107 62h1v1h-1zM107 94h1v1h-1zM107 96h1v1h-1zM113 59h3v1h-3zM113 63h3v1h-3zM115 60h1v3h-1zM115 64h1v1h-1zM115 109h1v4h-1zM115 171h1v1h-1zM115 186h1v3h-1zM113 65h2v1h-2zM113 108h2v1h-2zM113 172h2v1h-2zM118 59h2v1h-2zM118 63h2v1h-2zM118 171h2v1h-2zM117 60h1v1h-1zM117 62h1v1h-1zM117 109h1v4h-1zM117 126h1v1h-1zM117 174h1v1h-1zM120 60h1v1h-1zM120 91h1v2h-1zM120 94h1v4h-1zM120 125h1v1h-1zM120 172h1v1h-1zM120 174h1v1h-1zM120 183h1v2h-1zM120 186h1v4h-1zM117 61h4v1h-4zM122 59h3v1h-3zM122 60h1v4h-1zM122 94h1v4h-1zM122 109h1v1h-1zM122 111h1v1h-1zM128 57h1v2h-1zM128 60h1v3h-1zM128 94h1v1h-1zM128 96h1v1h-1zM128 124h1v1h-1zM128 186h1v1h-1zM127 59h4v1h-4zM129 63h2v1h-2zM133 59h3v1h-3zM133 61h2v1h-2zM133 93h2v1h-2zM133 97h2v1h-2zM135 62h1v1h-1zM135 94h1v1h-1zM135 96h1v1h-1zM135 106h1v2h-1zM135 109h1v4h-1zM135 119h1v1h-1zM135 125h1v1h-1zM132 63h3v1h-3zM132 123h3v1h-3zM146 57h4v1h-4zM146 60h4v1h-4zM146 58h1v2h-1zM146 61h1v3h-1zM146 126h1v1h-1zM149 61h1v1h-1zM157 59h3v1h-3zM157 171h3v1h-3zM157 175h3v1h-3zM157 60h1v4h-1zM160 60h1v4h-1zM170 60h1v1h-1zM170 62h1v1h-1zM167 62h1v1h-1zM167 175h1v1h-1zM172 59h3v1h-3zM172 185h3v1h-3zM172 60h1v4h-1zM175 60h1v4h-1zM181 59h1v2h-1zM181 126h1v1h-1zM181 185h1v1h-1zM181 187h1v3h-1zM178 61h1v2h-1zM178 106h1v1h-1zM178 111h1v2h-1zM179 63h1v2h-1zM177 65h2v1h-2zM189 59h2v1h-2zM189 63h2v1h-2zM188 60h1v3h-1zM188 186h1v1h-1zM188 188h1v1h-1zM191 60h1v1h-1zM191 62h1v1h-1zM191 183h1v2h-1zM191 186h1v3h-1zM194 60h2v2h-2zM197 60h2v2h-2zM200 60h2v2h-2zM46 73h1v2h-1zM46 77h1v1h-1zM46 94h1v3h-1zM46 191h1v1h-1zM49 73h1v2h-1zM49 76h1v2h-1zM49 91h1v2h-1zM49 94h1v3h-1zM53 75h1v1h-1zM53 77h1v1h-1zM53 96h1v1h-1zM53 105h1v1h-1zM53 108h1v1h-1zM53 111h1v3h-1zM53 157h1v4h-1zM51 76h2v1h-2zM74 72h4v1h-4zM74 75h3v1h-3zM74 78h3v1h-3zM77 76h1v2h-1zM79 80h1v1h-1zM79 94h1v1h-1zM79 154h1v1h-1zM79 157h1v3h-1zM83 77h4v1h-4zM89 78h3v1h-3zM95 72h1v1h-1zM95 74h1v4h-1zM94 78h3v1h-3zM94 171h3v1h-3zM94 175h3v1h-3zM220 27h1v1h-1zM220 33h1v1h-1zM220 90h1v1h-1zM220 96h1v1h-1zM220 153h1v1h-1zM220 159h1v1h-1zM219 28h1v1h-1zM219 32h1v1h-1zM219 91h1v1h-1zM219 95h1v1h-1zM219 154h1v1h-1zM219 158h1v1h-1zM221 28h1v1h-1zM221 32h1v1h-1zM221 91h1v1h-1zM221 95h1v1h-1zM221 154h1v1h-1zM221 158h1v1h-1zM218 29h1v1h-1zM218 31h1v1h-1zM218 92h1v1h-1zM218 94h1v1h-1zM218 155h1v1h-1zM218 157h1v1h-1zM222 29h1v1h-1zM222 31h1v1h-1zM222 92h1v1h-1zM222 94h1v1h-1zM222 155h1v1h-1zM222 157h1v1h-1zM217 30h1v1h-1zM217 93h1v1h-1zM217 156h1v1h-1zM223 30h1v1h-1zM223 93h1v1h-1zM223 156h1v1h-1zM230 28h1v2h-1zM230 31h1v3h-1zM230 62h1v2h-1zM230 91h1v2h-1zM230 94h1v3h-1zM230 123h1v1h-1zM230 125h1v1h-1zM230 154h1v2h-1zM230 157h1v3h-1zM228 30h3v1h-3zM228 34h3v1h-3zM228 93h3v1h-3zM228 97h3v1h-3zM228 124h3v1h-3zM228 126h3v1h-3zM228 156h3v1h-3zM228 160h3v1h-3zM227 31h1v3h-1zM227 44h1v5h-1zM227 57h1v1h-1zM227 60h1v4h-1zM227 94h1v3h-1zM227 107h1v2h-1zM227 110h1v2h-1zM227 125h1v1h-1zM227 157h1v3h-1zM227 170h1v5h-1zM227 183h1v3h-1zM227 187h1v3h-1zM234 30h3v1h-3zM234 34h3v1h-3zM234 43h3v1h-3zM234 46h3v1h-3zM234 49h3v1h-3zM234 93h3v1h-3zM234 97h3v1h-3zM234 156h3v1h-3zM234 160h3v1h-3zM234 187h3v1h-3zM234 189h3v1h-3zM233 31h1v1h-1zM233 44h1v2h-1zM233 48h1v1h-1zM233 57h1v1h-1zM233 60h1v4h-1zM233 94h1v1h-1zM233 108h1v2h-1zM233 157h1v1h-1zM233 171h1v1h-1zM233 173h1v3h-1zM233 188h1v1h-1zM234 32h2v1h-2zM234 95h2v1h-2zM234 158h2v1h-2zM234 185h2v1h-2zM236 33h1v1h-1zM236 96h1v1h-1zM236 110h1v2h-1zM236 159h1v1h-1zM236 186h1v1h-1zM236 188h1v1h-1zM233 34h3v1h-3zM233 97h3v1h-3zM233 126h3v1h-3zM233 160h3v1h-3zM239 28h1v2h-1zM239 31h1v4h-1zM239 43h1v3h-1zM239 47h1v3h-1zM239 72h1v1h-1zM239 74h1v4h-1zM239 91h1v2h-1zM239 94h1v4h-1zM239 109h1v1h-1zM239 111h1v1h-1zM239 154h1v2h-1zM239 157h1v4h-1zM239 198h1v1h-1zM239 200h1v4h-1zM239 30h3v1h-3zM239 93h3v1h-3zM239 156h3v1h-3zM242 31h1v4h-1zM242 73h1v1h-1zM242 77h1v1h-1zM242 94h1v4h-1zM242 109h1v1h-1zM242 157h1v4h-1zM242 172h1v3h-1zM242 186h1v4h-1zM245 32h5v1h-5zM245 95h5v1h-5zM245 158h5v1h-5zM253 30h3v1h-3zM253 34h3v1h-3zM253 156h3v1h-3zM253 160h3v1h-3zM253 173h3v1h-3zM253 175h3v1h-3zM253 185h3v1h-3zM252 31h1v1h-1zM252 93h1v2h-1zM252 108h1v2h-1zM252 126h1v2h-1zM252 157h1v3h-1zM252 174h1v1h-1zM252 186h1v1h-1zM253 32h2v1h-2zM253 171h2v1h-2zM253 187h2v1h-2zM255 33h1v1h-1zM255 95h1v3h-1zM255 106h1v2h-1zM255 109h1v3h-1zM255 154h1v2h-1zM255 157h1v3h-1zM255 172h1v1h-1zM255 174h1v1h-1zM255 188h1v1h-1zM252 34h3v1h-3zM252 189h3v1h-3zM259 28h1v2h-1zM259 31h1v3h-1zM259 106h1v2h-1zM259 109h1v4h-1zM259 156h1v1h-1zM259 158h1v3h-1zM258 30h4v1h-4zM260 34h2v1h-2zM260 93h2v1h-2zM260 201h2v1h-2zM267 28h1v2h-1zM267 31h1v3h-1zM267 94h1v1h-1zM267 157h1v3h-1zM267 183h1v5h-1zM265 30h3v1h-3zM265 34h3v1h-3zM264 31h1v3h-1zM264 59h1v1h-1zM264 94h1v1h-1zM264 96h1v1h-1zM264 121h1v2h-1zM264 157h1v3h-1zM231 28h1v2h-1zM231 31h1v3h-1zM231 44h1v5h-1zM231 60h1v2h-1zM231 91h1v2h-1zM231 94h1v3h-1zM231 154h1v2h-1zM231 157h1v3h-1zM231 170h1v5h-1zM231 183h1v3h-1zM231 187h1v3h-1zM229 30h3v1h-3zM229 34h3v1h-3zM229 93h3v1h-3zM229 97h3v1h-3zM229 156h3v1h-3zM229 160h3v1h-3zM228 31h1v3h-1zM228 94h1v3h-1zM228 157h1v3h-1zM235 30h3v1h-3zM235 93h3v1h-3zM235 156h3v1h-3zM234 31h1v1h-1zM234 94h1v1h-1zM234 110h1v2h-1zM234 157h1v1h-1zM235 32h2v1h-2zM235 95h2v1h-2zM235 158h2v1h-2zM237 33h1v1h-1zM237 44h1v1h-1zM237 47h1v2h-1zM237 96h1v1h-1zM237 108h1v2h-1zM237 123h1v3h-1zM237 136h1v2h-1zM237 139h1v2h-1zM237 159h1v1h-1zM237 174h1v1h-1zM240 28h1v2h-1zM240 31h1v4h-1zM240 91h1v2h-1zM240 94h1v4h-1zM240 120h1v2h-1zM240 123h1v3h-1zM240 136h1v1h-1zM240 139h1v2h-1zM240 154h1v2h-1zM240 157h1v4h-1zM240 172h1v1h-1zM240 174h1v1h-1zM240 185h1v1h-1zM240 30h3v1h-3zM240 93h3v1h-3zM240 156h3v1h-3zM243 31h1v4h-1zM243 43h1v3h-1zM243 47h1v3h-1zM243 94h1v4h-1zM243 120h1v1h-1zM243 123h1v3h-1zM243 157h1v4h-1zM246 32h5v1h-5zM246 95h5v1h-5zM246 158h5v1h-5zM254 30h3v1h-3zM254 156h3v1h-3zM254 160h3v1h-3zM253 31h1v1h-1zM253 93h1v4h-1zM253 157h1v3h-1zM254 32h2v1h-2zM256 33h1v1h-1zM256 58h1v2h-1zM256 61h1v3h-1zM256 93h1v4h-1zM256 154h1v2h-1zM256 157h1v3h-1zM260 28h1v2h-1zM260 31h1v3h-1zM260 45h1v4h-1zM260 58h1v2h-1zM260 91h1v1h-1zM260 94h1v3h-1zM260 121h1v2h-1zM260 124h1v3h-1zM260 136h1v1h-1zM260 140h1v1h-1zM260 156h1v1h-1zM260 172h1v4h-1zM260 188h1v1h-1zM260 199h1v2h-1zM260 202h1v2h-1zM259 30h4v1h-4zM261 34h2v1h-2zM261 135h2v1h-2zM261 198h2v1h-2zM261 204h2v1h-2zM268 28h1v2h-1zM268 31h1v3h-1zM268 46h1v3h-1zM268 50h1v1h-1zM268 94h1v1h-1zM268 109h1v4h-1zM268 188h1v2h-1zM266 30h3v1h-3zM266 34h3v1h-3zM266 45h3v1h-3zM266 49h3v1h-3zM265 31h1v3h-1zM265 46h1v3h-1zM265 94h1v1h-1zM265 96h1v1h-1zM265 106h1v1h-1zM265 109h1v3h-1zM265 169h1v2h-1zM265 172h1v3h-1zM227 43h4v1h-4zM227 49h4v1h-4zM227 109h4v1h-4zM227 169h4v1h-4zM227 175h4v1h-4zM239 46h5v1h-5zM250 43h4v1h-4zM250 46h4v1h-4zM250 44h1v2h-1zM250 47h1v3h-1zM250 76h1v2h-1zM250 112h1v2h-1zM250 186h1v1h-1zM254 44h1v2h-1zM254 95h1v3h-1zM256 43h2v1h-2zM256 112h2v1h-2zM257 44h1v5h-1zM257 93h1v2h-1zM257 172h1v4h-1zM257 186h1v1h-1zM257 49h2v1h-2zM263 45h1v4h-1zM263 136h1v2h-1zM263 157h1v3h-1zM263 199h1v1h-1zM263 201h1v3h-1zM261 49h3v1h-3zM266 51h2v1h-2zM266 93h2v1h-2zM266 97h2v1h-2zM271 43h1v1h-1zM271 46h1v3h-1zM271 93h1v5h-1zM271 109h1v4h-1zM271 186h1v2h-1zM270 45h2v1h-2zM270 49h3v1h-3zM270 75h3v1h-3zM270 156h3v1h-3zM270 160h3v1h-3zM274 45h3v1h-3zM274 108h3v1h-3zM274 112h3v1h-3zM274 46h1v4h-1zM274 93h1v5h-1zM277 46h1v4h-1zM277 94h1v1h-1zM277 96h1v1h-1zM277 174h1v1h-1zM284 43h3v1h-3zM284 49h3v1h-3zM285 44h1v5h-1zM285 93h1v1h-1zM285 108h1v1h-1zM285 174h1v1h-1zM288 45h3v1h-3zM288 120h3v1h-3zM288 126h3v1h-3zM288 46h1v4h-1zM288 169h1v2h-1zM288 172h1v3h-1zM291 46h1v4h-1zM291 121h1v5h-1zM294 43h1v2h-1zM294 46h1v3h-1zM294 121h1v1h-1zM294 123h1v4h-1zM294 186h1v3h-1zM293 45h4v1h-4zM293 122h4v1h-4zM295 49h2v1h-2zM295 120h2v1h-2zM295 185h2v1h-2zM295 189h2v1h-2zM299 45h2v1h-2zM299 49h2v1h-2zM298 46h1v1h-1zM298 48h1v1h-1zM301 46h1v1h-1zM301 60h1v3h-1zM298 47h4v1h-4zM298 122h4v1h-4zM303 45h1v1h-1zM303 47h1v3h-1zM303 56h1v2h-1zM303 170h1v1h-1zM303 172h1v4h-1zM305 45h1v1h-1zM305 109h1v1h-1zM303 46h2v1h-2zM303 108h2v1h-2zM303 112h2v1h-2zM303 122h2v1h-2zM308 45h2v1h-2zM308 49h2v1h-2zM308 122h2v1h-2zM308 126h2v1h-2zM307 46h1v3h-1zM307 108h1v1h-1zM307 110h1v3h-1zM307 123h1v3h-1zM307 186h1v1h-1zM310 46h1v3h-1zM310 58h1v5h-1zM310 123h1v1h-1zM310 125h1v1h-1zM312 45h3v1h-3zM312 49h3v1h-3zM312 108h3v1h-3zM312 46h1v3h-1zM312 50h1v2h-1zM312 123h1v1h-1zM312 125h1v1h-1zM312 170h1v5h-1zM315 46h1v3h-1zM315 123h1v1h-1zM315 172h1v1h-1zM315 174h1v1h-1zM318 45h2v1h-2zM318 49h2v1h-2zM317 46h1v1h-1zM317 48h1v1h-1zM317 108h1v1h-1zM317 112h1v1h-1zM317 186h1v3h-1zM320 46h1v1h-1zM320 58h1v1h-1zM320 61h1v2h-1zM320 172h1v1h-1zM317 47h4v1h-4zM322 45h1v1h-1zM322 47h1v3h-1zM322 57h1v3h-1zM322 61h1v3h-1zM322 123h1v3h-1zM324 45h1v1h-1zM322 46h2v1h-2zM327 45h2v1h-2zM329 46h1v1h-1zM329 48h1v1h-1zM329 109h1v4h-1zM329 187h1v2h-1zM327 47h3v1h-3zM327 49h3v1h-3zM326 48h1v1h-1zM326 57h1v3h-1zM326 61h1v3h-1zM326 106h1v1h-1zM326 109h1v3h-1zM326 186h1v1h-1zM331 43h1v2h-1zM331 46h1v3h-1zM331 109h1v4h-1zM331 169h1v1h-1zM331 172h1v3h-1zM331 187h1v2h-1zM331 45h3v1h-3zM331 49h3v1h-3zM334 46h1v3h-1zM334 56h1v2h-1zM334 59h1v2h-1zM334 63h1v1h-1zM334 172h1v4h-1zM337 43h1v1h-1zM337 46h1v3h-1zM337 122h1v4h-1zM337 172h1v4h-1zM336 45h2v1h-2zM336 60h2v1h-2zM336 62h2v1h-2zM336 108h2v1h-2zM336 49h3v1h-3zM336 110h3v1h-3zM336 112h3v1h-3zM340 43h2v1h-2zM341 44h1v5h-1zM341 61h1v1h-1zM341 63h1v1h-1zM341 186h1v1h-1zM341 49h2v1h-2zM341 114h2v1h-2zM341 175h2v1h-2zM345 43h1v1h-1zM345 46h1v3h-1zM345 56h1v2h-1zM345 109h1v1h-1zM345 111h1v1h-1zM345 122h1v1h-1zM345 185h1v3h-1zM344 45h2v1h-2zM344 49h3v1h-3zM349 43h1v2h-1zM349 46h1v3h-1zM349 56h1v2h-1zM349 59h1v2h-1zM349 62h1v3h-1zM348 45h4v1h-4zM348 124h4v1h-4zM350 49h2v1h-2zM353 45h1v2h-1zM353 111h1v1h-1zM353 123h1v4h-1zM357 45h1v2h-1zM354 47h1v2h-1zM354 62h1v1h-1zM354 170h1v5h-1zM354 185h1v1h-1zM354 187h1v3h-1zM356 47h1v2h-1zM356 57h1v1h-1zM356 112h1v2h-1zM356 123h1v4h-1zM356 185h1v1h-1zM355 49h1v2h-1zM355 59h1v2h-1zM355 114h1v1h-1zM353 51h2v1h-2zM227 58h2v2h-2zM232 58h2v2h-2zM229 60h1v2h-1zM236 59h2v1h-2zM236 63h2v1h-2zM235 60h1v1h-1zM235 62h1v1h-1zM235 112h1v1h-1zM235 122h1v4h-1zM235 171h1v1h-1zM238 60h1v1h-1zM238 185h1v1h-1zM238 187h1v3h-1zM235 61h4v1h-4zM241 57h1v2h-1zM241 60h1v3h-1zM240 59h4v1h-4zM242 63h2v1h-2zM242 122h2v1h-2zM246 59h2v1h-2zM248 60h1v1h-1zM248 62h1v1h-1zM248 108h1v2h-1zM246 61h3v1h-3zM246 63h3v1h-3zM245 62h1v1h-1zM245 73h1v2h-1zM245 76h1v2h-1zM245 172h1v3h-1zM245 176h1v1h-1zM245 186h1v4h-1zM250 61h5v1h-5zM256 57h4v1h-4zM256 60h4v1h-4zM262 59h1v1h-1zM262 61h1v3h-1zM262 109h1v4h-1zM262 138h1v1h-1zM262 172h1v3h-1zM262 60h2v1h-2zM262 200h2v1h-2zM267 59h2v1h-2zM267 63h2v1h-2zM266 60h1v3h-1zM266 121h1v5h-1zM266 157h1v3h-1zM269 60h1v3h-1zM269 157h1v3h-1zM269 161h1v2h-1zM269 186h1v2h-1zM272 57h1v2h-1zM272 60h1v3h-1zM272 93h1v5h-1zM272 121h1v2h-1zM272 124h1v3h-1zM272 157h1v3h-1zM272 172h1v3h-1zM272 176h1v2h-1zM272 188h1v2h-1zM271 59h4v1h-4zM273 63h2v1h-2zM277 59h2v1h-2zM277 63h2v1h-2zM276 60h1v3h-1zM276 109h1v3h-1zM276 113h1v1h-1zM279 60h1v3h-1zM279 126h1v2h-1zM282 59h2v1h-2zM282 63h2v1h-2zM281 60h1v3h-1zM281 94h1v1h-1zM284 60h1v1h-1zM284 62h1v1h-1zM284 93h1v1h-1zM284 95h1v3h-1zM287 59h2v1h-2zM287 63h2v1h-2zM286 60h1v3h-1zM286 93h1v1h-1zM286 185h1v1h-1zM286 189h1v1h-1zM289 60h1v3h-1zM291 57h2v1h-2zM292 58h1v5h-1zM292 109h1v4h-1zM292 172h1v1h-1zM292 174h1v1h-1zM292 63h2v1h-2zM302 58h1v2h-1zM302 109h1v1h-1zM302 111h1v1h-1zM302 186h1v4h-1zM300 63h1v2h-1zM300 106h1v2h-1zM300 109h1v3h-1zM310 57h4v1h-4zM310 63h4v1h-4zM314 58h1v5h-1zM314 111h1v1h-1zM314 186h1v3h-1zM314 190h1v2h-1zM317 57h3v1h-3zM317 60h3v1h-3zM317 63h3v1h-3zM316 58h1v2h-1zM316 62h1v1h-1zM322 60h5v1h-5zM336 56h6v1h-6zM336 64h6v1h-6zM339 57h1v1h-1zM339 59h1v1h-1zM339 61h1v1h-1zM339 63h1v1h-1zM333 58h9v1h-9zM339 60h3v1h-3zM339 62h3v1h-3zM334 61h3v1h-3zM334 171h3v1h-3zM334 189h3v1h-3zM333 62h2v1h-2zM333 64h2v1h-2zM333 122h2v1h-2zM333 126h2v1h-2zM336 63h1v1h-1zM347 56h1v2h-1zM347 172h1v3h-1zM347 185h1v3h-1zM344 58h1v1h-1zM344 60h1v5h-1zM344 123h1v4h-1zM344 172h1v3h-1zM344 188h1v2h-1zM347 58h5v1h-5zM343 59h2v1h-2zM346 59h1v1h-1zM346 123h1v4h-1zM346 188h1v2h-1zM346 61h6v1h-6zM353 56h9v1h-9zM353 64h9v1h-9zM356 58h4v1h-4zM359 59h1v2h-1zM359 120h1v2h-1zM359 123h1v3h-1zM354 61h6v1h-6zM358 62h1v2h-1zM358 170h1v5h-1zM358 188h1v1h-1zM364 56h1v2h-1zM364 59h1v2h-1zM364 62h1v2h-1zM364 108h1v2h-1zM364 183h1v1h-1zM364 186h1v3h-1zM367 56h4v1h-4zM367 57h1v1h-1zM367 63h1v1h-1zM367 110h1v2h-1zM370 57h1v1h-1zM370 172h1v3h-1zM370 176h1v2h-1zM363 58h9v1h-9zM366 59h1v1h-1zM366 64h1v1h-1zM366 112h1v1h-1zM366 125h1v1h-1zM368 59h2v1h-2zM368 189h2v1h-2zM371 59h1v1h-1zM371 64h1v1h-1zM371 106h1v1h-1zM371 109h1v3h-1zM371 191h1v1h-1zM366 60h6v1h-6zM366 62h6v1h-6zM363 61h3v1h-3zM363 126h3v1h-3zM363 189h3v1h-3zM369 61h1v1h-1zM369 64h1v1h-1zM369 63h2v1h-2zM363 64h2v1h-2zM363 185h2v1h-2zM375 56h1v2h-1zM375 170h1v2h-1zM375 174h1v1h-1zM377 56h1v1h-1zM377 106h1v2h-1zM377 109h1v3h-1zM377 57h5v1h-5zM374 58h1v1h-1zM374 60h1v5h-1zM374 109h1v3h-1zM376 58h1v2h-1zM376 123h1v1h-1zM376 125h1v1h-1zM378 58h1v1h-1zM378 60h1v2h-1zM378 63h1v2h-1zM378 123h1v4h-1zM373 59h2v1h-2zM378 59h4v1h-4zM378 62h4v1h-4zM384 56h7v1h-7zM383 59h9v1h-9zM385 60h1v3h-1zM385 188h1v1h-1zM388 60h1v4h-1zM388 186h1v1h-1zM388 188h1v1h-1zM391 62h1v2h-1zM391 169h1v4h-1zM391 174h1v2h-1zM391 183h1v2h-1zM391 186h1v3h-1zM384 63h1v1h-1zM384 109h1v3h-1zM384 172h1v1h-1zM383 64h1v1h-1zM383 123h1v3h-1zM383 186h1v4h-1zM388 64h4v1h-4zM394 60h2v2h-2zM394 126h2v1h-2zM397 60h2v2h-2zM400 60h2v2h-2zM400 186h2v2h-2zM238 73h2v1h-2zM238 135h2v1h-2zM238 141h2v1h-2zM238 171h2v1h-2zM238 186h2v1h-2zM238 199h2v1h-2zM238 78h3v1h-3zM238 122h3v1h-3zM238 126h3v1h-3zM238 173h3v1h-3zM238 175h3v1h-3zM238 204h3v1h-3zM243 72h2v1h-2zM243 78h2v1h-2zM243 177h2v1h-2zM244 75h1v1h-1zM244 108h1v1h-1zM244 110h1v3h-1zM247 72h4v1h-4zM247 187h4v1h-4zM247 73h1v2h-1zM247 186h1v1h-1zM247 188h1v1h-1zM247 75h3v1h-3zM247 78h3v1h-3zM271 72h2v1h-2zM271 78h2v1h-2zM270 73h1v2h-1zM270 76h1v2h-1zM270 93h1v3h-1zM270 121h1v5h-1zM270 157h1v3h-1zM270 161h1v2h-1zM270 183h1v3h-1zM273 73h1v1h-1zM273 76h1v2h-1zM273 93h1v5h-1zM273 109h1v3h-1zM273 157h1v3h-1zM273 183h1v5h-1zM24 94h1v1h-1zM24 96h1v1h-1zM24 120h1v3h-1zM24 124h1v1h-1zM24 126h1v1h-1zM24 169h1v2h-1zM22 95h2v1h-2zM34 93h4v1h-4zM34 156h4v1h-4zM36 97h2v1h-2zM36 160h2v1h-2zM53 93h2v1h-2zM53 109h2v1h-2zM55 94h1v1h-1zM55 96h1v1h-1zM55 110h1v1h-1zM55 136h1v2h-1zM55 139h1v2h-1zM55 186h1v3h-1zM55 199h1v2h-1zM55 202h1v2h-1zM53 95h3v1h-3zM53 97h3v1h-3zM53 156h3v1h-3zM52 96h1v1h-1zM52 120h1v6h-1zM52 171h1v1h-1zM52 173h1v3h-1zM61 93h1v5h-1zM61 123h1v2h-1zM61 158h1v4h-1zM58 94h1v4h-1zM58 105h1v3h-1zM58 109h1v4h-1zM58 136h1v1h-1zM58 138h1v3h-1zM58 175h1v2h-1zM58 186h1v3h-1zM58 190h1v1h-1zM58 199h1v1h-1zM58 201h1v3h-1zM60 94h1v4h-1zM60 125h1v2h-1zM60 156h1v4h-1zM60 171h1v2h-1zM60 186h1v1h-1zM60 188h1v1h-1zM66 93h2v1h-2zM68 94h1v1h-1zM68 96h1v1h-1zM68 154h1v2h-1zM68 157h1v3h-1zM68 172h1v3h-1zM65 96h1v1h-1zM71 95h5v1h-5zM79 93h3v1h-3zM79 97h3v1h-3zM79 160h3v1h-3zM79 95h2v1h-2zM79 156h2v1h-2zM79 171h2v1h-2zM79 175h2v1h-2zM78 97h3v1h-3zM78 160h3v1h-3zM84 93h3v1h-3zM84 156h3v1h-3zM92 93h1v1h-1zM92 119h1v2h-1zM92 122h1v1h-1zM92 124h1v1h-1zM92 126h1v2h-1zM92 157h1v3h-1zM92 161h1v1h-1zM92 186h1v1h-1zM92 188h1v1h-1zM95 93h2v1h-2zM95 112h2v1h-2zM95 97h3v1h-3zM100 93h3v1h-3zM100 94h1v4h-1zM100 121h1v1h-1zM100 127h1v1h-1zM100 188h1v1h-1zM103 94h1v4h-1zM103 109h1v3h-1zM103 172h1v4h-1zM103 186h1v1h-1zM103 188h1v1h-1zM107 93h2v1h-2zM107 97h2v1h-2zM106 94h1v1h-1zM106 96h1v1h-1zM106 106h1v2h-1zM106 109h1v3h-1zM106 172h1v4h-1zM106 95h4v1h-4zM112 95h5v1h-5zM119 91h1v2h-1zM119 94h1v4h-1zM119 111h1v1h-1zM119 93h3v1h-3zM126 93h2v1h-2zM126 185h2v1h-2zM126 189h2v1h-2zM126 95h3v1h-3zM126 97h3v1h-3zM132 93h2v1h-2zM132 97h2v1h-2zM132 172h2v1h-2zM131 94h1v3h-1zM131 126h1v1h-1zM137 91h1v4h-1zM137 96h1v2h-1zM137 123h1v1h-1zM137 126h1v1h-1zM137 186h1v1h-1zM139 94h1v1h-1zM139 96h1v1h-1zM139 186h1v4h-1zM137 95h2v1h-2zM30 93h2v1h-2zM30 97h2v1h-2zM35 93h4v1h-4zM35 156h4v1h-4zM42 93h2v1h-2zM42 97h2v1h-2zM42 111h2v1h-2zM42 185h2v1h-2zM42 189h2v1h-2zM41 94h1v3h-1zM41 186h1v3h-1zM44 94h1v3h-1zM44 186h1v1h-1zM44 188h1v1h-1zM50 91h1v2h-1zM50 94h1v3h-1zM50 107h1v1h-1zM50 109h1v2h-1zM50 157h1v1h-1zM50 159h1v1h-1zM50 172h1v3h-1zM48 93h3v1h-3zM48 97h3v1h-3zM48 158h3v1h-3zM48 160h3v1h-3zM47 94h1v3h-1zM47 120h1v6h-1zM47 159h1v1h-1zM47 172h1v3h-1zM47 189h1v2h-1zM54 93h2v1h-2zM56 94h1v1h-1zM56 96h1v1h-1zM56 157h1v4h-1zM56 171h1v2h-1zM54 95h3v1h-3zM54 97h3v1h-3zM54 156h3v1h-3zM59 93h2v1h-2zM59 162h2v1h-2zM59 94h1v4h-1zM59 123h1v2h-1zM59 156h1v2h-1zM59 173h1v2h-1zM63 94h1v4h-1zM63 120h1v1h-1zM63 123h1v4h-1zM63 156h1v4h-1zM63 186h1v1h-1zM67 93h2v1h-2zM67 189h2v1h-2zM67 95h3v1h-3zM67 97h3v1h-3zM72 95h5v1h-5zM80 93h3v1h-3zM80 120h3v1h-3zM80 123h3v1h-3zM80 126h3v1h-3zM80 95h2v1h-2zM85 93h3v1h-3zM88 94h1v4h-1zM88 109h1v3h-1zM88 186h1v1h-1zM88 188h1v1h-1zM91 94h2v1h-2zM91 162h2v1h-2zM97 91h1v1h-1zM97 94h1v3h-1zM96 93h2v1h-2zM96 97h3v1h-3zM101 93h3v1h-3zM101 187h3v1h-3zM101 189h3v1h-3zM101 94h1v4h-1zM101 109h1v3h-1zM101 126h1v1h-1zM101 172h1v1h-1zM104 94h1v4h-1zM104 119h1v1h-1zM104 123h1v1h-1zM104 125h1v1h-1zM107 95h4v1h-4zM113 95h5v1h-5zM120 93h3v1h-3zM120 110h3v1h-3zM120 112h3v1h-3zM120 185h3v1h-3zM127 93h2v1h-2zM127 127h2v1h-2zM127 95h3v1h-3zM127 97h3v1h-3zM22 107h9v1h-9zM23 109h7v1h-7zM23 111h7v1h-7zM23 113h7v1h-7zM33 105h7v1h-7zM33 107h7v1h-7zM33 109h7v1h-7zM39 113h2v1h-2zM45 106h6v1h-6zM45 108h6v1h-6zM45 111h6v1h-6zM42 107h4v1h-4zM42 171h4v1h-4zM44 109h2v1h-2zM44 175h2v1h-2zM45 110h1v1h-1zM56 108h5v1h-5zM55 113h6v1h-6zM71 109h2v2h-2zM82 109h2v1h-2zM94 106h1v2h-1zM94 109h1v3h-1zM94 120h1v1h-1zM98 109h1v3h-1zM98 119h1v8h-1zM98 172h1v1h-1zM98 174h1v1h-1zM104 108h3v1h-3zM104 112h3v1h-3zM109 108h2v1h-2zM109 171h2v1h-2zM109 175h2v1h-2zM111 109h1v1h-1zM111 111h1v1h-1zM111 126h1v1h-1zM111 172h1v1h-1zM109 110h3v1h-3zM109 112h3v1h-3zM108 111h1v1h-1zM108 121h1v1h-1zM108 172h1v1h-1zM108 174h1v1h-1zM113 109h1v4h-1zM113 119h1v1h-1zM113 171h1v1h-1zM113 173h1v3h-1zM113 186h1v1h-1zM113 188h1v1h-1zM120 108h2v1h-2zM120 127h2v1h-2zM130 106h3v1h-3zM130 109h3v1h-3zM130 112h3v1h-3zM133 107h1v1h-1zM133 110h1v2h-1zM133 125h1v2h-1zM135 108h3v1h-3zM142 108h1v1h-1zM142 186h1v4h-1zM140 109h2v1h-2zM145 106h1v1h-1zM145 109h1v3h-1zM145 119h1v1h-1zM145 123h1v2h-1zM145 183h1v2h-1zM145 186h1v3h-1zM144 108h2v1h-2zM144 112h3v1h-3zM148 108h3v1h-3zM148 109h1v4h-1zM148 122h1v2h-1zM151 109h1v4h-1zM151 120h1v1h-1zM154 108h2v1h-2zM154 112h2v1h-2zM154 185h2v1h-2zM153 109h1v1h-1zM153 111h1v1h-1zM153 122h1v2h-1zM153 125h1v2h-1zM156 109h1v1h-1zM156 124h1v1h-1zM156 172h1v3h-1zM153 110h4v1h-4zM163 109h9v1h-9zM179 105h3v1h-3zM183 105h4v1h-4zM186 106h1v5h-1zM186 113h1v1h-1zM186 121h1v1h-1zM186 123h1v2h-1zM186 169h1v2h-1zM186 172h1v3h-1zM178 107h5v1h-5zM178 109h5v1h-5zM184 108h1v3h-1zM182 111h1v2h-1zM182 169h1v1h-1zM182 172h1v3h-1zM185 111h1v1h-1zM185 188h1v1h-1zM184 112h2v1h-2zM184 119h2v1h-2zM179 113h2v1h-2zM182 113h2v1h-2zM182 125h2v1h-2zM192 105h1v1h-1zM192 107h1v1h-1zM192 109h1v1h-1zM192 111h1v1h-1zM192 113h1v1h-1zM188 106h9v1h-9zM188 110h9v1h-9zM189 107h1v1h-1zM189 121h1v5h-1zM195 107h1v1h-1zM195 109h1v1h-1zM195 111h1v1h-1zM195 174h1v1h-1zM189 108h7v1h-7zM189 112h7v1h-7zM22 119h3v1h-3zM22 123h3v1h-3zM22 125h3v1h-3zM22 156h3v1h-3zM22 160h3v1h-3zM26 119h5v1h-5zM26 127h5v1h-5zM26 125h2v1h-2zM33 119h4v1h-4zM38 119h1v2h-1zM38 122h1v3h-1zM38 183h1v1h-1zM38 186h1v3h-1zM37 121h4v1h-4zM32 122h5v1h-5zM32 126h3v1h-3zM32 138h3v1h-3zM32 185h3v1h-3zM32 189h3v1h-3zM47 126h4v1h-4zM52 126h4v1h-4zM57 121h2v2h-2zM57 137h2v1h-2zM57 200h2v1h-2zM62 121h2v2h-2zM70 120h9v1h-9zM70 125h9v1h-9zM70 121h1v1h-1zM72 121h1v1h-1zM72 124h1v1h-1zM72 154h1v2h-1zM72 157h1v4h-1zM73 122h1v1h-1zM73 154h1v2h-1zM73 157h1v4h-1zM73 172h1v1h-1zM73 174h1v1h-1zM75 122h1v3h-1zM75 157h1v4h-1zM75 183h1v2h-1zM75 186h1v3h-1zM70 127h4v1h-4zM77 127h2v1h-2zM84 121h5v1h-5zM92 121h2v1h-2zM90 123h5v1h-5zM90 125h5v1h-5zM97 127h2v1h-2zM100 120h9v1h-9zM101 122h7v1h-7zM102 124h1v2h-1zM103 126h2v1h-2zM105 127h4v1h-4zM110 121h9v1h-9zM111 123h7v1h-7zM111 125h7v1h-7zM111 127h7v1h-7zM121 119h7v1h-7zM121 121h7v1h-7zM121 123h7v1h-7zM121 124h1v1h-1zM122 126h2v1h-2zM125 126h2v1h-2zM130 120h9v1h-9zM130 121h1v4h-1zM130 127h1v1h-1zM130 172h1v3h-1zM130 185h1v1h-1zM130 187h1v3h-1zM134 127h3v1h-3zM141 120h8v1h-8zM141 123h2v1h-2zM143 124h1v2h-1zM142 127h7v1h-7zM155 120h4v1h-4zM150 121h5v1h-5zM158 121h1v6h-1zM150 124h4v1h-4zM150 127h4v1h-4zM156 127h2v1h-2zM165 123h5v1h-5zM171 120h4v1h-4zM171 173h4v1h-4zM171 121h1v2h-1zM171 172h1v1h-1zM171 174h1v1h-1zM171 186h1v1h-1zM171 123h3v1h-3zM171 126h3v1h-3zM171 189h3v1h-3zM174 124h1v2h-1zM174 172h1v1h-1zM174 188h1v1h-1zM181 120h3v1h-3zM181 175h3v1h-3zM186 120h4v1h-4zM186 126h4v1h-4zM183 121h1v1h-1zM183 123h1v1h-1zM183 126h1v2h-1zM183 185h1v1h-1zM181 122h6v1h-6zM182 124h3v1h-3zM185 125h2v1h-2zM192 123h2v2h-2zM192 189h2v1h-2zM195 123h2v2h-2zM198 123h2v2h-2zM56 135h2v1h-2zM56 141h2v1h-2zM56 177h2v1h-2zM56 191h2v1h-2zM56 198h2v1h-2zM56 204h2v1h-2zM55 138h2v1h-2zM55 201h2v1h-2zM259 93h2v1h-2zM259 157h2v1h-2zM259 97h3v1h-3zM259 108h3v1h-3zM265 93h2v1h-2zM265 97h2v1h-2zM265 156h2v1h-2zM265 160h2v1h-2zM264 95h4v1h-4zM278 93h2v1h-2zM278 97h2v1h-2zM278 171h2v1h-2zM280 94h1v1h-1zM280 172h1v1h-1zM280 174h1v1h-1zM280 183h1v2h-1zM280 186h1v3h-1zM277 95h4v1h-4zM283 93h1v1h-1zM283 95h1v3h-1zM283 108h1v1h-1zM283 110h1v3h-1zM283 186h1v3h-1zM283 94h2v1h-2zM283 109h2v1h-2zM283 173h2v1h-2zM261 91h1v1h-1zM261 94h1v3h-1zM261 139h1v1h-1zM261 156h1v1h-1zM260 97h3v1h-3zM265 95h4v1h-4zM275 93h1v3h-1zM275 172h1v3h-1zM275 186h1v1h-1zM275 188h1v1h-1zM279 93h2v1h-2zM279 97h2v1h-2zM278 94h1v1h-1zM278 96h1v1h-1zM278 128h1v1h-1zM278 186h1v1h-1zM278 95h4v1h-4zM284 94h2v1h-2zM227 106h5v1h-5zM227 112h5v1h-5zM227 186h5v1h-5zM240 108h2v1h-2zM240 112h2v1h-2zM239 110h4v1h-4zM246 108h1v1h-1zM246 123h1v3h-1zM244 109h2v1h-2zM249 110h1v2h-1zM249 123h1v3h-1zM251 110h1v2h-1zM251 128h1v1h-1zM248 114h2v1h-2zM248 185h2v1h-2zM248 189h2v1h-2zM254 108h4v1h-4zM264 108h2v1h-2zM264 156h2v1h-2zM264 160h2v1h-2zM264 112h3v1h-3zM268 108h3v1h-3zM274 114h2v1h-2zM288 108h2v1h-2zM288 112h2v1h-2zM287 109h1v1h-1zM287 111h1v1h-1zM287 121h1v5h-1zM290 109h1v1h-1zM287 110h4v1h-4zM287 171h4v1h-4zM292 108h3v1h-3zM295 109h1v4h-1zM295 172h1v1h-1zM298 108h3v1h-3zM298 112h3v1h-3zM297 109h1v3h-1zM297 186h1v3h-1zM302 110h4v1h-4zM302 171h4v1h-4zM309 108h1v1h-1zM307 109h2v1h-2zM307 171h2v1h-2zM311 109h1v1h-1zM312 110h2v1h-2zM312 175h2v1h-2zM311 112h3v1h-3zM325 108h2v1h-2zM325 112h3v1h-3zM329 108h2v1h-2zM332 108h1v1h-1zM332 123h1v3h-1zM332 185h1v2h-1zM333 109h1v4h-1zM338 109h1v1h-1zM338 111h1v1h-1zM338 186h1v1h-1zM338 188h1v1h-1zM335 111h1v1h-1zM335 123h1v1h-1zM335 125h1v1h-1zM335 183h1v1h-1zM335 186h1v3h-1zM341 108h3v1h-3zM341 112h3v1h-3zM340 109h1v3h-1zM340 122h1v4h-1zM340 169h1v2h-1zM340 172h1v3h-1zM343 109h1v3h-1zM343 113h1v1h-1zM343 185h1v3h-1zM346 108h2v1h-2zM346 112h2v1h-2zM348 109h1v1h-1zM348 123h1v1h-1zM348 125h1v1h-1zM345 110h4v1h-4zM351 108h3v1h-3zM350 109h1v1h-1zM351 110h2v1h-2zM350 112h3v1h-3zM368 108h1v2h-1zM368 172h1v1h-1zM368 184h1v5h-1zM365 110h1v2h-1zM365 172h1v1h-1zM365 174h1v1h-1zM370 108h2v1h-2zM370 112h3v1h-3zM370 171h3v1h-3zM370 175h3v1h-3zM375 108h3v1h-3zM375 112h3v1h-3zM380 108h2v1h-2zM380 112h2v1h-2zM379 109h1v1h-1zM379 111h1v1h-1zM379 170h1v1h-1zM379 173h1v2h-1zM382 109h1v1h-1zM379 110h4v1h-4zM385 108h2v1h-2zM385 112h2v1h-2zM387 109h1v3h-1zM390 112h1v2h-1zM389 114h1v1h-1zM389 172h1v1h-1zM228 122h2v1h-2zM232 122h1v4h-1zM242 126h3v1h-3zM242 185h3v1h-3zM247 122h2v1h-2zM247 126h2v1h-2zM260 120h4v1h-4zM260 123h4v1h-4zM260 141h4v1h-4zM266 120h4v1h-4zM266 126h4v1h-4zM272 120h5v1h-5zM272 123h4v1h-4zM300 120h2v1h-2zM299 121h1v1h-1zM299 123h1v4h-1zM299 186h1v4h-1zM304 120h1v1h-1zM304 123h1v3h-1zM304 186h1v1h-1zM304 188h1v1h-1zM303 126h3v1h-3zM313 122h2v1h-2zM313 126h2v1h-2zM312 124h4v1h-4zM325 120h1v2h-1zM325 123h1v3h-1zM323 122h3v1h-3zM323 126h3v1h-3zM328 122h2v1h-2zM328 126h2v1h-2zM327 123h1v3h-1zM330 123h1v3h-1zM330 189h1v1h-1zM338 126h3v1h-3zM342 122h2v1h-2zM342 123h1v4h-1zM349 122h2v1h-2zM349 126h2v1h-2zM351 123h1v1h-1zM353 122h3v1h-3zM358 122h4v1h-4zM360 126h2v1h-2zM364 122h3v1h-3zM363 123h1v1h-1zM363 172h1v1h-1zM364 124h2v1h-2zM374 122h2v1h-2zM374 124h3v1h-3zM374 126h3v1h-3zM373 125h1v1h-1zM373 172h1v3h-1zM378 122h3v1h-3zM381 123h1v4h-1zM381 172h1v1h-1zM381 174h1v1h-1zM386 120h1v2h-1zM386 123h1v3h-1zM386 172h1v1h-1zM386 174h1v1h-1zM384 122h3v1h-3zM384 126h3v1h-3zM393 120h2v1h-2zM394 121h1v5h-1zM394 171h1v1h-1zM394 175h1v1h-1zM398 123h2v2h-2zM401 123h2v2h-2zM404 123h2v2h-2zM237 138h3v1h-3zM28 156h3v1h-3zM28 160h3v1h-3zM28 169h3v1h-3zM28 175h3v1h-3zM40 158h5v1h-5zM48 156h2v1h-2zM48 171h2v1h-2zM48 175h2v1h-2zM67 154h1v2h-1zM67 157h1v3h-1zM66 156h4v1h-4zM68 160h2v1h-2zM78 156h2v1h-2zM83 156h3v1h-3zM90 156h3v1h-3zM90 160h3v1h-3zM89 157h1v3h-1zM29 156h3v1h-3zM29 160h3v1h-3zM41 158h5v1h-5zM49 156h2v1h-2zM49 158h3v1h-3zM49 160h3v1h-3zM64 156h1v2h-1zM60 162h2v1h-2zM67 156h4v1h-4zM69 160h2v1h-2zM73 156h3v1h-3zM91 156h3v1h-3zM91 160h3v1h-3zM37 175h3v1h-3zM37 189h3v1h-3zM62 173h5v1h-5zM69 171h3v1h-3zM69 175h3v1h-3zM74 171h2v1h-2zM74 175h2v1h-2zM73 173h4v1h-4zM83 173h2v1h-2zM98 173h4v1h-4zM103 171h3v1h-3zM108 173h4v1h-4zM118 173h3v1h-3zM118 175h3v1h-3zM122 171h4v1h-4zM124 175h2v1h-2zM128 171h2v1h-2zM128 175h2v1h-2zM141 172h9v1h-9zM159 172h1v3h-1zM159 176h1v1h-1zM159 184h1v5h-1zM157 177h2v1h-2zM161 171h2v1h-2zM161 175h3v1h-3zM168 173h1v2h-1zM172 171h2v1h-2zM172 175h2v1h-2zM172 187h2v1h-2zM181 171h2v1h-2zM181 186h2v1h-2zM185 171h4v1h-4zM187 175h2v1h-2zM196 171h2v1h-2zM196 186h2v2h-2zM198 172h1v1h-1zM198 174h1v1h-1zM196 173h3v1h-3zM196 175h3v1h-3zM27 186h1v3h-1zM56 185h3v1h-3zM56 189h3v1h-3zM61 185h2v1h-2zM61 189h2v1h-2zM60 187h4v1h-4zM65 185h4v1h-4zM75 185h3v1h-3zM75 189h3v1h-3zM101 185h2v1h-2zM111 185h2v1h-2zM111 189h2v1h-2zM116 185h2v1h-2zM116 189h2v1h-2zM118 186h1v3h-1zM125 187h4v1h-4zM135 185h2v1h-2zM135 189h2v1h-2zM134 187h4v1h-4zM139 185h3v1h-3zM144 185h4v1h-4zM146 189h2v1h-2zM154 189h3v1h-3zM158 183h2v1h-2zM159 189h2v1h-2zM162 183h2v1h-2zM163 189h2v1h-2zM167 189h3v1h-3zM176 185h4v1h-4zM178 189h2v1h-2zM186 185h2v1h-2zM186 187h3v1h-3zM186 189h3v1h-3zM190 185h4v1h-4zM199 186h2v2h-2zM202 186h2v2h-2zM258 156h1v1h-1zM258 158h1v3h-1zM258 157h2v1h-2zM258 187h2v1h-2zM269 156h3v1h-3zM269 160h3v1h-3zM233 172h2v1h-2zM243 171h3v1h-3zM243 175h3v1h-3zM257 171h3v1h-3zM257 189h3v1h-3zM263 171h3v1h-3zM263 175h3v1h-3zM272 171h3v1h-3zM272 175h3v1h-3zM278 173h3v1h-3zM278 175h3v1h-3zM283 171h3v1h-3zM282 172h1v1h-1zM282 175h3v1h-3zM289 175h2v1h-2zM293 171h2v1h-2zM293 175h2v1h-2zM292 173h4v1h-4zM304 169h2v1h-2zM308 169h1v1h-1zM308 172h1v3h-1zM307 175h3v1h-3zM311 169h2v1h-2zM316 171h2v1h-2zM316 175h2v1h-2zM318 172h1v1h-1zM315 173h4v1h-4zM321 171h3v1h-3zM321 173h2v1h-2zM323 174h1v1h-1zM323 186h1v1h-1zM323 188h1v1h-1zM320 175h3v1h-3zM330 171h2v1h-2zM330 175h3v1h-3zM339 171h4v1h-4zM345 171h2v1h-2zM345 175h2v1h-2zM354 169h4v1h-4zM354 175h4v1h-4zM361 171h2v1h-2zM361 175h2v1h-2zM360 172h1v1h-1zM360 174h1v1h-1zM360 173h4v1h-4zM366 171h2v1h-2zM366 175h2v1h-2zM365 173h4v1h-4zM376 169h3v1h-3zM376 172h3v1h-3zM376 175h3v1h-3zM382 171h2v1h-2zM382 175h2v1h-2zM381 173h4v1h-4zM387 171h2v1h-2zM387 175h2v1h-2zM386 173h4v1h-4zM393 172h1v1h-1zM393 174h1v1h-1zM391 173h2v1h-2zM258 185h3v1h-3zM276 185h2v1h-2zM276 189h2v1h-2zM275 187h4v1h-4zM280 185h3v1h-3zM280 189h3v1h-3zM299 185h3v1h-3zM305 185h2v1h-2zM305 189h2v1h-2zM304 187h4v1h-4zM314 185h3v1h-3zM314 189h3v1h-3zM319 185h1v1h-1zM319 187h1v3h-1zM321 185h1v1h-1zM319 186h2v1h-2zM324 185h2v1h-2zM324 189h2v1h-2zM323 187h4v1h-4zM328 185h1v2h-1zM334 185h2v1h-2zM339 185h2v1h-2zM339 189h2v1h-2zM338 187h4v1h-4zM354 186h2v1h-2zM359 185h2v1h-2zM361 186h1v1h-1zM361 188h1v1h-1zM359 187h3v1h-3zM359 189h3v1h-3zM367 183h2v1h-2zM372 189h1v2h-1zM380 185h3v1h-3zM380 186h1v4h-1zM386 185h2v1h-2zM386 187h3v1h-3zM386 189h3v1h-3zM390 185h4v1h-4zM392 189h2v1h-2zM396 183h1v1h-1zM396 186h1v3h-1zM395 185h2v1h-2zM395 189h3v1h-3zM403 186h2v2h-2zM406 186h2v2h-2z"/><path fill="#7fa8d6" d="M15 28h1v5h-1zM15 91h1v5h-1zM16 29h1v3h-1zM16 92h1v3h-1zM13 30h1v1h-1zM13 93h1v1h-1zM14 30h1v2h-1zM14 93h1v2h-1zM17 30h1v1h-1zM17 93h1v1h-1zM220 28h1v5h-1zM220 91h1v5h-1zM220 154h1v5h-1zM221 29h1v3h-1zM221 92h1v3h-1zM221 155h1v3h-1zM218 30h1v1h-1zM218 93h1v1h-1zM218 156h1v1h-1zM219 30h1v2h-1zM219 93h1v2h-1zM219 156h1v2h-1zM222 30h1v1h-1zM222 93h1v1h-1zM222 156h1v1h-1z"/><path fill="#c5d8ed" d="M14 29h1v1h-1zM14 92h1v1h-1zM219 29h1v1h-1zM219 92h1v1h-1zM219 155h1v1h-1z"/><path fill="#dba85f" d="M25 71h1v5h-1zM25 134h1v5h-1zM25 197h1v5h-1zM24 72h1v5h-1zM24 135h1v5h-1zM24 198h1v5h-1zM26 72h1v5h-1zM26 135h1v5h-1zM26 198h1v5h-1zM22 73h1v1h-1zM22 136h1v1h-1zM22 199h1v1h-1zM23 73h1v2h-1zM23 76h1v1h-1zM23 136h1v2h-1zM23 139h1v1h-1zM23 199h1v2h-1zM23 202h1v1h-1zM27 73h1v2h-1zM27 76h1v1h-1zM27 136h1v2h-1zM27 139h1v1h-1zM27 199h1v2h-1zM27 202h1v1h-1zM28 73h1v1h-1zM28 136h1v1h-1zM28 199h1v1h-1zM230 71h1v5h-1zM230 134h1v5h-1zM230 197h1v5h-1zM229 72h1v5h-1zM229 135h1v5h-1zM229 198h1v5h-1zM231 72h1v5h-1zM231 135h1v5h-1zM231 198h1v5h-1zM227 73h1v1h-1zM227 136h1v1h-1zM227 199h1v1h-1zM228 73h1v2h-1zM228 76h1v1h-1zM228 136h1v2h-1zM228 139h1v1h-1zM228 199h1v2h-1zM228 202h1v1h-1zM232 73h1v2h-1zM232 76h1v1h-1zM232 136h1v2h-1zM232 139h1v1h-1zM232 199h1v2h-1zM232 202h1v1h-1zM233 73h1v1h-1zM233 136h1v1h-1zM233 199h1v1h-1z"/><path fill="#d9c2ad" d="M12 84h1v1h-1zM12 147h1v1h-1zM15 84h1v1h-1zM15 147h1v1h-1zM18 84h1v1h-1zM18 147h1v1h-1zM21 84h1v1h-1zM21 147h1v1h-1zM24 84h1v1h-1zM24 147h1v1h-1zM27 84h1v1h-1zM27 147h1v1h-1zM30 84h1v1h-1zM30 147h1v1h-1zM33 84h1v1h-1zM33 147h1v1h-1zM36 84h1v1h-1zM36 147h1v1h-1zM39 84h1v1h-1zM39 147h1v1h-1zM42 84h1v1h-1zM42 147h1v1h-1zM45 84h1v1h-1zM45 147h1v1h-1zM48 84h1v1h-1zM48 147h1v1h-1zM51 84h1v1h-1zM51 147h1v1h-1zM54 84h1v1h-1zM54 147h1v1h-1zM57 84h1v1h-1zM57 147h1v1h-1zM60 84h1v1h-1zM60 147h1v1h-1zM63 84h1v1h-1zM63 147h1v1h-1zM66 84h1v1h-1zM66 147h1v1h-1zM69 84h1v1h-1zM69 147h1v1h-1zM72 84h1v1h-1zM72 147h1v1h-1zM75 84h1v1h-1zM75 147h1v1h-1zM78 84h1v1h-1zM78 147h1v1h-1zM81 84h1v1h-1zM81 147h1v1h-1zM84 84h1v1h-1zM84 147h1v1h-1zM87 84h1v1h-1zM87 147h1v1h-1zM90 84h1v1h-1zM90 147h1v1h-1zM93 84h1v1h-1zM93 147h1v1h-1zM96 84h1v1h-1zM96 147h1v1h-1zM99 84h1v1h-1zM99 147h1v1h-1zM102 84h1v1h-1zM102 147h1v1h-1zM105 84h1v1h-1zM105 147h1v1h-1zM108 84h1v1h-1zM108 147h1v1h-1zM111 84h1v1h-1zM111 147h1v1h-1zM114 84h1v1h-1zM114 147h1v1h-1zM117 84h1v1h-1zM117 147h1v1h-1zM120 84h1v1h-1zM120 147h1v1h-1zM123 84h1v1h-1zM123 147h1v1h-1zM126 84h1v1h-1zM126 147h1v1h-1zM129 84h1v1h-1zM129 147h1v1h-1zM132 84h1v1h-1zM132 147h1v1h-1zM135 84h1v1h-1zM135 147h1v1h-1zM138 84h1v1h-1zM138 147h1v1h-1zM141 84h1v1h-1zM141 147h1v1h-1zM144 84h1v1h-1zM144 147h1v1h-1zM147 84h1v1h-1zM147 147h1v1h-1zM150 84h1v1h-1zM150 147h1v1h-1zM153 84h1v1h-1zM153 147h1v1h-1zM156 84h1v1h-1zM156 147h1v1h-1zM159 84h1v1h-1zM159 147h1v1h-1zM162 84h1v1h-1zM162 147h1v1h-1zM165 84h1v1h-1zM165 147h1v1h-1zM168 84h1v1h-1zM168 147h1v1h-1zM171 84h1v1h-1zM171 147h1v1h-1zM174 84h1v1h-1zM174 147h1v1h-1zM177 84h1v1h-1zM177 147h1v1h-1zM180 84h1v1h-1zM180 147h1v1h-1zM183 84h1v1h-1zM183 147h1v1h-1zM186 84h1v1h-1zM186 147h1v1h-1zM189 84h1v1h-1zM189 147h1v1h-1zM192 84h1v1h-1zM192 147h1v1h-1zM195 84h1v1h-1zM195 147h1v1h-1zM198 84h1v1h-1zM198 147h1v1h-1zM201 84h1v1h-1zM201 147h1v1h-1zM204 84h1v1h-1zM204 147h1v1h-1zM207 84h1v1h-1zM207 147h1v1h-1zM210 84h1v1h-1zM210 147h1v1h-1zM213 84h1v1h-1zM213 147h1v1h-1zM216 84h1v1h-1zM216 147h1v1h-1zM219 84h1v1h-1zM219 147h1v1h-1zM222 84h1v1h-1zM222 147h1v1h-1zM225 84h1v1h-1zM225 147h1v1h-1zM228 84h1v1h-1zM228 147h1v1h-1zM231 84h1v1h-1zM231 147h1v1h-1zM234 84h1v1h-1zM234 147h1v1h-1zM237 84h1v1h-1zM237 147h1v1h-1zM240 84h1v1h-1zM240 147h1v1h-1zM243 84h1v1h-1zM243 147h1v1h-1zM246 84h1v1h-1zM246 147h1v1h-1zM249 84h1v1h-1zM249 147h1v1h-1zM252 84h1v1h-1zM252 147h1v1h-1zM255 84h1v1h-1zM255 147h1v1h-1zM258 84h1v1h-1zM258 147h1v1h-1zM261 84h1v1h-1zM261 147h1v1h-1zM264 84h1v1h-1zM264 147h1v1h-1zM267 84h1v1h-1zM267 147h1v1h-1zM270 84h1v1h-1zM270 147h1v1h-1zM273 84h1v1h-1zM273 147h1v1h-1zM276 84h1v1h-1zM276 147h1v1h-1zM279 84h1v1h-1zM279 147h1v1h-1zM282 84h1v1h-1zM282 147h1v1h-1zM285 84h1v1h-1zM285 147h1v1h-1zM288 84h1v1h-1zM288 147h1v1h-1zM291 84h1v1h-1zM291 147h1v1h-1zM294 84h1v1h-1zM294 147h1v1h-1zM297 84h1v1h-1zM297 147h1v1h-1zM300 84h1v1h-1zM300 147h1v1h-1zM303 84h1v1h-1zM303 147h1v1h-1zM306 84h1v1h-1zM306 147h1v1h-1zM309 84h1v1h-1zM309 147h1v1h-1zM312 84h1v1h-1zM312 147h1v1h-1zM315 84h1v1h-1zM315 147h1v1h-1zM318 84h1v1h-1zM318 147h1v1h-1zM321 84h1v1h-1zM321 147h1v1h-1zM324 84h1v1h-1zM324 147h1v1h-1zM327 84h1v1h-1zM327 147h1v1h-1zM330 84h1v1h-1zM330 147h1v1h-1zM333 84h1v1h-1zM333 147h1v1h-1zM336 84h1v1h-1zM336 147h1v1h-1zM339 84h1v1h-1zM339 147h1v1h-1zM342 84h1v1h-1zM342 147h1v1h-1zM345 84h1v1h-1zM345 147h1v1h-1zM348 84h1v1h-1zM348 147h1v1h-1zM351 84h1v1h-1zM351 147h1v1h-1zM354 84h1v1h-1zM354 147h1v1h-1zM357 84h1v1h-1zM357 147h1v1h-1zM360 84h1v1h-1zM360 147h1v1h-1zM363 84h1v1h-1zM363 147h1v1h-1zM366 84h1v1h-1zM366 147h1v1h-1zM369 84h1v1h-1zM369 147h1v1h-1zM372 84h1v1h-1zM372 147h1v1h-1zM375 84h1v1h-1zM375 147h1v1h-1zM378 84h1v1h-1zM378 147h1v1h-1zM381 84h1v1h-1zM381 147h1v1h-1zM384 84h1v1h-1zM384 147h1v1h-1zM387 84h1v1h-1zM387 147h1v1h-1zM390 84h1v1h-1zM390 147h1v1h-1zM393 84h1v1h-1zM393 147h1v1h-1zM396 84h1v1h-1zM396 147h1v1h-1zM399 84h1v1h-1zM399 147h1v1h-1zM402 84h1v1h-1zM402 147h1v1h-1zM405 84h1v1h-1zM405 147h1v1h-1zM408 84h1v1h-1zM408 147h1v1h-1z"/><path fill="#82a5c1" d="M15 154h1v5h-1zM16 155h1v3h-1zM13 156h1v1h-1zM14 156h1v2h-1zM17 156h1v1h-1z"/><path fill="#c7d6e3" d="M14 155h1v1h-1z"/></svg>